<?xml version="1.0" standalone="no"?>
 <!DOCTYPE svg PUBLIC "-//W3C//DTD SVG 1.1//EN" 
 "http://www.w3.org/Graphics/SVG/1.1/DTD/svg11.dtd"> 
<svg
  xmlns:svg="http://www.w3.org/2000/svg"
  xmlns="http://www.w3.org/2000/svg"
  xmlns:xlink="http://www.w3.org/1999/xlink"
  version="1.1"
  width="13.812520cm" height="9.088120cm" viewBox="0 0 138125200 90881200">
<title>SVG Picture created as corne-chocolate-brd.svg date 2023/02/18 00:32:03 </title>
  <desc>Picture generated by PCBNEW </desc>
<g style="fill:#000000; fill-opacity:1.000000;stroke:#000000; stroke-opacity:1.000000;
stroke-linecap:round; stroke-linejoin:round;"
 transform="translate(0 0) scale(1 1)">
</g>
<g style="fill:#000000; fill-opacity:0.0; 
stroke:#000000; stroke-width:0.000000; stroke-opacity:1; 
stroke-linecap:round; stroke-linejoin:round;">
</g>
<g style="fill:#C2C2C2; fill-opacity:0.0; 
stroke:#C2C2C2; stroke-width:0.000000; stroke-opacity:1; 
stroke-linecap:round; stroke-linejoin:round;">
</g>
<g style="fill:#C2C2C2; fill-opacity:0.0; 
stroke:#C2C2C2; stroke-width:100000.000000; stroke-opacity:1; 
stroke-linecap:round; stroke-linejoin:round;">
<path d="M111010000 3345000
L136010000 3345000
" />
<path d="M136010000 3345000
L136010000 55345000
" />
<path d="M136010000 55345000
L111010000 55345000
" />
<path d="M111010000 55345000
L111010000 3345000
" />
<path d="M117608572 27065000
L129608572 27065000
" />
<path d="M129608572 27065000
L129608572 53565000
" />
<path d="M129608572 53565000
L117608572 53565000
" />
<path d="M117608572 53565000
L117608572 27065000
" />
</g>
<g style="fill:#C2C2C2; fill-opacity:0.0; 
stroke:#C2C2C2; stroke-width:66040.000000; stroke-opacity:1; 
stroke-linecap:round; stroke-linejoin:round;">
<path d="M114679600 23128700
L114679600 2173700
" />
<path d="M132330060 23128700
L132330060 2173700
" />
<path d="M114679600 2173700
L132330060 2173700
" />
<path d="M114679600 23128700
L132330060 23128700
" />
</g>
<g style="fill:#C2C2C2; fill-opacity:0.0; 
stroke:#C2C2C2; stroke-width:120000.000000; stroke-opacity:1; 
stroke-linecap:round; stroke-linejoin:round;">
<path d="M19027800 25244600
L1027800 25244600
" />
<path d="M1027800 25244600
L1027800 8244600
" />
<path d="M1027800 8244600
L19027800 8244600
" />
<path d="M19027800 8244600
L19027800 25244600
" />
<path d="M37021900 25248400
L19021900 25248400
" />
<path d="M19021900 25248400
L19021900 8248400
" />
<path d="M19021900 8248400
L37021900 8248400
" />
<path d="M37021900 8248400
L37021900 25248400
" />
<path d="M55036000 20471600
L37036000 20471600
" />
<path d="M37036000 20471600
L37036000 3471600
" />
<path d="M37036000 3471600
L55036000 3471600
" />
<path d="M55036000 3471600
L55036000 20471600
" />
<path d="M73046000 18061800
L55046000 18061800
" />
<path d="M55046000 18061800
L55046000 1061800
" />
<path d="M55046000 1061800
L73046000 1061800
" />
<path d="M73046000 1061800
L73046000 18061800
" />
<path d="M91062000 20382900
L73062000 20382900
" />
<path d="M73062000 20382900
L73062000 3382900
" />
<path d="M73062000 3382900
L91062000 3382900
" />
<path d="M91062000 3382900
L91062000 20382900
" />
<path d="M109075000 22783900
L91075000 22783900
" />
<path d="M91075000 22783900
L91075000 5783900
" />
<path d="M91075000 5783900
L109075000 5783900
" />
<path d="M109075000 5783900
L109075000 22783900
" />
<path d="M19027800 42227500
L1027800 42227500
" />
<path d="M1027800 42227500
L1027800 25227500
" />
<path d="M1027800 25227500
L19027800 25227500
" />
<path d="M19027800 25227500
L19027800 42227500
" />
<path d="M37021900 42262000
L19021900 42262000
" />
<path d="M19021900 42262000
L19021900 25262000
" />
<path d="M19021900 25262000
L37021900 25262000
" />
<path d="M37021900 25262000
L37021900 42262000
" />
<path d="M55038000 37460200
L37038000 37460200
" />
<path d="M37038000 37460200
L37038000 20460200
" />
<path d="M37038000 20460200
L55038000 20460200
" />
<path d="M55038000 20460200
L55038000 37460200
" />
<path d="M73053000 35063000
L55053000 35063000
" />
<path d="M55053000 35063000
L55053000 18063000
" />
<path d="M55053000 18063000
L73053000 18063000
" />
<path d="M73053000 18063000
L73053000 35063000
" />
<path d="M91062000 37397700
L73062000 37397700
" />
<path d="M73062000 37397700
L73062000 20397700
" />
<path d="M73062000 20397700
L91062000 20397700
" />
<path d="M91062000 20397700
L91062000 37397700
" />
<path d="M109075000 39825000
L91075000 39825000
" />
<path d="M91075000 39825000
L91075000 22825000
" />
<path d="M91075000 22825000
L109075000 22825000
" />
<path d="M109075000 22825000
L109075000 39825000
" />
<path d="M19027800 59258000
L1027800 59258000
" />
<path d="M1027800 59258000
L1027800 42258000
" />
<path d="M1027800 42258000
L19027800 42258000
" />
<path d="M19027800 42258000
L19027800 59258000
" />
<path d="M37021900 59246000
L19021900 59246000
" />
<path d="M19021900 59246000
L19021900 42246000
" />
<path d="M19021900 42246000
L37021900 42246000
" />
<path d="M37021900 42246000
L37021900 59246000
" />
<path d="M55039000 54473000
L37039000 54473000
" />
<path d="M37039000 54473000
L37039000 37473000
" />
<path d="M37039000 37473000
L55039000 37473000
" />
<path d="M55039000 37473000
L55039000 54473000
" />
<path d="M73042000 52052000
L55042000 52052000
" />
<path d="M55042000 52052000
L55042000 35052000
" />
<path d="M55042000 35052000
L73042000 35052000
" />
<path d="M73042000 35052000
L73042000 52052000
" />
<path d="M91062000 54389000
L73062000 54389000
" />
<path d="M73062000 54389000
L73062000 37389000
" />
<path d="M73062000 37389000
L91062000 37389000
" />
<path d="M91062000 37389000
L91062000 54389000
" />
<path d="M86010000 75225000
L68010000 75225000
" />
<path d="M68010000 75225000
L68010000 58225000
" />
<path d="M68010000 58225000
L86010000 58225000
" />
<path d="M86010000 58225000
L86010000 75225000
" />
<path d="M104682371 79977741
L87295706 75318998
" />
<path d="M87295706 75318998
L91695629 58898259
" />
<path d="M91695629 58898259
L109082294 63557002
" />
<path d="M109082294 63557002
L104682371 79977741
" />
<path d="M131871216 70730771
L122871216 86319229
" />
<path d="M122871216 86319229
L108148784 77819229
" />
<path d="M108148784 77819229
L117148784 62230771
" />
<path d="M117148784 62230771
L131871216 70730771
" />
<path d="M109082000 56815000
L91082000 56815000
" />
<path d="M91082000 56815000
L91082000 39815000
" />
<path d="M91082000 39815000
L109082000 39815000
" />
<path d="M109082000 39815000
L109082000 56815000
" />
<g >
</g>
<g >
</g>
<g >
</g>
<g >
</g>
<g >
</g>
<g >
</g>
<g >
</g>
<g >
</g>
<g >
</g>
<g >
</g>
<g >
</g>
<g >
</g>
<g >
</g>
<g >
</g>
<g >
</g>
<g >
</g>
<g >
</g>
<g >
</g>
<g >
</g>
<g >
</g>
<g >
</g>
<g >
</g>
<g >
</g>
<g >
</g>
<g >
</g>
<g >
</g>
<g >
</g>
<g >
</g>
<g >
</g>
<g >
</g>
<g >
</g>
<g >
</g>
<g >
</g>
<g >
</g>
<g >
</g>
<g >
</g>
<g >
</g>
<g >
</g>
<g >
</g>
<g >
</g>
<g >
</g>
<g >
</g>
<g >
</g>
<g >
</g>
<g >
</g>
<g >
</g>
<g >
</g>
<g >
</g>
<g >
</g>
<g >
</g>
<g >
</g>
<g >
</g>
<g >
</g>
<g >
</g>
<g >
</g>
<g >
</g>
<g >
</g>
<g >
</g>
<g >
</g>
<g >
</g>
<g >
</g>
<g >
</g>
<g >
</g>
<g >
</g>
<g >
</g>
<g >
</g>
<g >
</g>
<g >
</g>
<g >
</g>
<g >
</g>
<g >
</g>
<g >
</g>
<g >
</g>
<g >
</g>
<g >
</g>
<g >
</g>
<g >
</g>
<g >
</g>
<g >
</g>
<g >
</g>
<g >
</g>
<g >
</g>
<g >
</g>
<g >
</g>
<g >
</g>
<g >
</g>
</g>
<g style="fill:#000000; fill-opacity:0.0; 
stroke:#000000; stroke-width:120000.000000; stroke-opacity:1; 
stroke-linecap:round; stroke-linejoin:round;">
</g>
<g style="fill:#C2C200; fill-opacity:0.0; 
stroke:#C2C200; stroke-width:120000.000000; stroke-opacity:1; 
stroke-linecap:round; stroke-linejoin:round;">
</g>
<g style="fill:#C2C200; fill-opacity:0.0; 
stroke:#C2C200; stroke-width:150000.000000; stroke-opacity:1; 
stroke-linecap:round; stroke-linejoin:round;">
<path d="M3127800 23644600
L3127800 9844600
" />
<path d="M12627800 19844600
L12627800 23044600
" />
<path d="M3127800 23644600
L16927800 23644600
" />
<path d="M7427800 23044600
L12627800 23044600
" />
<path d="M7427800 19844600
L7427800 23044600
" />
<path d="M12627800 19844600
L7427800 19844600
" />
<path d="M16927800 9844600
L16927800 23644600
" />
<path d="M16927800 9844600
L3127800 9844600
" />
<path d="M25421900 19848400
L25421900 23048400
" />
<path d="M21121900 23648400
L21121900 9848400
" />
<path d="M30621900 19848400
L30621900 23048400
" />
<path d="M30621900 19848400
L25421900 19848400
" />
<path d="M34921900 9848400
L21121900 9848400
" />
<path d="M34921900 9848400
L34921900 23648400
" />
<path d="M25421900 23048400
L30621900 23048400
" />
<path d="M21121900 23648400
L34921900 23648400
" />
<path d="M48636000 15071600
L48636000 18271600
" />
<path d="M52936000 5071600
L39136000 5071600
" />
<path d="M39136000 18871600
L39136000 5071600
" />
<path d="M39136000 18871600
L52936000 18871600
" />
<path d="M43436000 18271600
L48636000 18271600
" />
<path d="M52936000 5071600
L52936000 18871600
" />
<path d="M43436000 15071600
L43436000 18271600
" />
<path d="M48636000 15071600
L43436000 15071600
" />
<path d="M57146000 16461800
L70946000 16461800
" />
<path d="M66646000 12661800
L61446000 12661800
" />
<path d="M70946000 2661800
L57146000 2661800
" />
<path d="M61446000 12661800
L61446000 15861800
" />
<path d="M70946000 2661800
L70946000 16461800
" />
<path d="M66646000 12661800
L66646000 15861800
" />
<path d="M57146000 16461800
L57146000 2661800
" />
<path d="M61446000 15861800
L66646000 15861800
" />
<path d="M79462000 14982900
L79462000 18182900
" />
<path d="M84662000 14982900
L79462000 14982900
" />
<path d="M88962000 4982900
L75162000 4982900
" />
<path d="M79462000 18182900
L84662000 18182900
" />
<path d="M88962000 4982900
L88962000 18782900
" />
<path d="M84662000 14982900
L84662000 18182900
" />
<path d="M75162000 18782900
L88962000 18782900
" />
<path d="M75162000 18782900
L75162000 4982900
" />
<path d="M106975000 7383900
L106975000 21183900
" />
<path d="M102675000 17383900
L102675000 20583900
" />
<path d="M93175000 21183900
L106975000 21183900
" />
<path d="M97475000 20583900
L102675000 20583900
" />
<path d="M93175000 21183900
L93175000 7383900
" />
<path d="M97475000 17383900
L97475000 20583900
" />
<path d="M106975000 7383900
L93175000 7383900
" />
<path d="M102675000 17383900
L97475000 17383900
" />
<path d="M16927800 26827500
L16927800 40627500
" />
<path d="M12627800 36827500
L7427800 36827500
" />
<path d="M3127800 40627500
L16927800 40627500
" />
<path d="M12627800 36827500
L12627800 40027500
" />
<path d="M16927800 26827500
L3127800 26827500
" />
<path d="M7427800 40027500
L12627800 40027500
" />
<path d="M3127800 40627500
L3127800 26827500
" />
<path d="M7427800 36827500
L7427800 40027500
" />
<path d="M25421900 40062000
L30621900 40062000
" />
<path d="M21121900 40662000
L34921900 40662000
" />
<path d="M25421900 36862000
L25421900 40062000
" />
<path d="M21121900 40662000
L21121900 26862000
" />
<path d="M34921900 26862000
L21121900 26862000
" />
<path d="M34921900 26862000
L34921900 40662000
" />
<path d="M30621900 36862000
L30621900 40062000
" />
<path d="M30621900 36862000
L25421900 36862000
" />
<path d="M39138000 35860200
L52938000 35860200
" />
<path d="M52938000 22060200
L52938000 35860200
" />
<path d="M48638000 32060200
L48638000 35260200
" />
<path d="M39138000 35860200
L39138000 22060200
" />
<path d="M43438000 35260200
L48638000 35260200
" />
<path d="M52938000 22060200
L39138000 22060200
" />
<path d="M43438000 32060200
L43438000 35260200
" />
<path d="M48638000 32060200
L43438000 32060200
" />
<path d="M70953000 19663000
L70953000 33463000
" />
<path d="M70953000 19663000
L57153000 19663000
" />
<path d="M57153000 33463000
L57153000 19663000
" />
<path d="M61453000 32863000
L66653000 32863000
" />
<path d="M61453000 29663000
L61453000 32863000
" />
<path d="M57153000 33463000
L70953000 33463000
" />
<path d="M66653000 29663000
L66653000 32863000
" />
<path d="M66653000 29663000
L61453000 29663000
" />
<path d="M75162000 35797700
L75162000 21997700
" />
<path d="M79462000 35197700
L84662000 35197700
" />
<path d="M84662000 31997700
L84662000 35197700
" />
<path d="M88962000 21997700
L75162000 21997700
" />
<path d="M75162000 35797700
L88962000 35797700
" />
<path d="M79462000 31997700
L79462000 35197700
" />
<path d="M88962000 21997700
L88962000 35797700
" />
<path d="M84662000 31997700
L79462000 31997700
" />
<path d="M102675000 34425000
L97475000 34425000
" />
<path d="M102675000 34425000
L102675000 37625000
" />
<path d="M97475000 34425000
L97475000 37625000
" />
<path d="M93175000 38225000
L106975000 38225000
" />
<path d="M93175000 38225000
L93175000 24425000
" />
<path d="M106975000 24425000
L106975000 38225000
" />
<path d="M106975000 24425000
L93175000 24425000
" />
<path d="M97475000 37625000
L102675000 37625000
" />
<path d="M12627800 53858000
L12627800 57058000
" />
<path d="M12627800 53858000
L7427800 53858000
" />
<path d="M3127800 57658000
L3127800 43858000
" />
<path d="M3127800 57658000
L16927800 57658000
" />
<path d="M7427800 57058000
L12627800 57058000
" />
<path d="M7427800 53858000
L7427800 57058000
" />
<path d="M16927800 43858000
L16927800 57658000
" />
<path d="M16927800 43858000
L3127800 43858000
" />
<path d="M34921900 43846000
L34921900 57646000
" />
<path d="M30621900 53846000
L30621900 57046000
" />
<path d="M25421900 53846000
L25421900 57046000
" />
<path d="M25421900 57046000
L30621900 57046000
" />
<path d="M21121900 57646000
L21121900 43846000
" />
<path d="M34921900 43846000
L21121900 43846000
" />
<path d="M21121900 57646000
L34921900 57646000
" />
<path d="M30621900 53846000
L25421900 53846000
" />
<path d="M48639000 49073000
L43439000 49073000
" />
<path d="M39139000 52873000
L39139000 39073000
" />
<path d="M39139000 52873000
L52939000 52873000
" />
<path d="M52939000 39073000
L39139000 39073000
" />
<path d="M43439000 52273000
L48639000 52273000
" />
<path d="M43439000 49073000
L43439000 52273000
" />
<path d="M48639000 49073000
L48639000 52273000
" />
<path d="M52939000 39073000
L52939000 52873000
" />
<path d="M70942000 36652000
L57142000 36652000
" />
<path d="M57142000 50452000
L70942000 50452000
" />
<path d="M66642000 46652000
L66642000 49852000
" />
<path d="M70942000 36652000
L70942000 50452000
" />
<path d="M66642000 46652000
L61442000 46652000
" />
<path d="M57142000 50452000
L57142000 36652000
" />
<path d="M61442000 46652000
L61442000 49852000
" />
<path d="M61442000 49852000
L66642000 49852000
" />
<path d="M75162000 52789000
L75162000 38989000
" />
<path d="M75162000 52789000
L88962000 52789000
" />
<path d="M88962000 38989000
L75162000 38989000
" />
<path d="M79462000 48989000
L79462000 52189000
" />
<path d="M79462000 52189000
L84662000 52189000
" />
<path d="M84662000 48989000
L79462000 48989000
" />
<path d="M88962000 38989000
L88962000 52789000
" />
<path d="M84662000 48989000
L84662000 52189000
" />
<path d="M83910000 59825000
L83910000 73625000
" />
<path d="M74410000 69825000
L74410000 73025000
" />
<path d="M70110000 73625000
L83910000 73625000
" />
<path d="M74410000 73025000
L79610000 73025000
" />
<path d="M83910000 59825000
L70110000 59825000
" />
<path d="M79610000 69825000
L79610000 73025000
" />
<path d="M70110000 73625000
L70110000 59825000
" />
<path d="M79610000 69825000
L74410000 69825000
" />
<path d="M106639740 64558963
L103068037 77888740
" />
<path d="M94047033 74850403
L99069847 76196262
" />
<path d="M89738260 74317037
L103068037 77888740
" />
<path d="M99898068 73105300
L99069847 76196262
" />
<path d="M106639740 64558963
L93309963 60987260
" />
<path d="M94875254 71759441
L94047033 74850403
" />
<path d="M89738260 74317037
L93309963 60987260
" />
<path d="M99898068 73105300
L94875254 71759441
" />
<path d="M123994679 73573334
L126765960 75173334
" />
<path d="M121394679 78076666
L124165960 79676666
" />
<path d="M117484425 64849425
L129435575 71749425
" />
<path d="M122535575 83700575
L129435575 71749425
" />
<path d="M123994679 73573334
L121394679 78076666
" />
<path d="M124165960 79676666
L126765960 75173334
" />
<path d="M117484425 64849425
L110584425 76800575
" />
<path d="M122535575 83700575
L110584425 76800575
" />
<path d="M97482000 51415000
L97482000 54615000
" />
<path d="M93182000 55215000
L93182000 41415000
" />
<path d="M102682000 51415000
L102682000 54615000
" />
<path d="M106982000 41415000
L106982000 55215000
" />
<path d="M102682000 51415000
L97482000 51415000
" />
<path d="M106982000 41415000
L93182000 41415000
" />
<path d="M93182000 55215000
L106982000 55215000
" />
<path d="M97482000 54615000
L102682000 54615000
" />
</g>
<g style="fill:#C2C200; fill-opacity:0.0; 
stroke:#C2C200; stroke-width:120000.000000; stroke-opacity:1; 
stroke-linecap:round; stroke-linejoin:round;">
<path d="M137774500 46896000
L132948500 46896000
" />
<path d="M132948500 35974000
L137774500 35974000
" />
<path d="M137774500 35974000
L137774500 46896000
" />
<path d="M132948500 46896000
L132948500 35974000
" />
<g >
</g>
<g >
</g>
<g >
</g>
<g >
</g>
<g >
</g>
<g >
</g>
<g >
</g>
<g >
</g>
<g >
</g>
<g >
</g>
<g >
</g>
<g >
</g>
<g >
</g>
<g >
</g>
<g >
</g>
<g >
</g>
<g >
</g>
<g >
</g>
<g >
</g>
<g >
</g>
<g >
</g>
<g >
</g>
<g >
</g>
<g >
</g>
<g >
</g>
<g >
</g>
<g >
</g>
<g >
</g>
<g >
</g>
<g >
</g>
<g >
</g>
<g >
</g>
<g >
</g>
<g >
</g>
<g >
</g>
<g >
</g>
<g >
</g>
<g >
</g>
<g >
</g>
<g >
</g>
<g >
</g>
<g >
</g>
<g >
</g>
<g >
</g>
<g >
</g>
<g >
</g>
<g >
</g>
<g >
</g>
<g >
</g>
<g >
</g>
<g >
</g>
<g >
</g>
<g >
</g>
<g >
</g>
<g >
</g>
<g >
</g>
<g >
</g>
<g >
</g>
<g >
</g>
<g >
</g>
<g >
</g>
<g >
</g>
<g >
</g>
<g >
</g>
<g >
</g>
<g >
</g>
<g >
</g>
<g >
</g>
<g >
</g>
<g >
</g>
<g >
</g>
<g >
</g>
<g >
</g>
<g >
</g>
<g >
</g>
<g >
</g>
<g >
</g>
<g >
</g>
<g >
</g>
<g >
</g>
<g >
</g>
<g >
</g>
<g >
</g>
<g >
</g>
<g >
</g>
<g >
</g>
</g>
<g style="fill:#000000; fill-opacity:0.0; 
stroke:#000000; stroke-width:120000.000000; stroke-opacity:1; 
stroke-linecap:round; stroke-linejoin:round;">
</g>
<g style="fill:#C2C200; fill-opacity:0.0; 
stroke:#C2C200; stroke-width:120000.000000; stroke-opacity:1; 
stroke-linecap:round; stroke-linejoin:round;">
</g>
<g style="fill:#C2C200; fill-opacity:0.0; 
stroke:#C2C200; stroke-width:150000.000000; stroke-opacity:1; 
stroke-linecap:round; stroke-linejoin:round;">
<path d="M119055000 8055000
L119055000 2105000
" />
<path d="M119055000 2105000
L74575000 2075000
" />
<path d="M18521900 20648224
L18521900 15501777
" />
<path d="M35075000 7575000
L19021900 7575000
" />
<path d="M18075000.000000 32075000.000001 A500001.000000 500001.000000 0.0 0 0 17575000.000001 32575000.000000" />
<path d="M17575000 32575000
L17575000 37721447
" />
<path d="M18521899.999999 32575000.000000 A503153.000000 503153.000000 0.0 0 0 18074999.949049 32075000.452870" />
<circle cx="19024850.000000" cy="42242750.000000" r="2100000.000000" /> 
<path d="M18521900.000001 59575000.000000 A500001.000000 500001.000000 0.0 0 0 19021900.000000 60074999.999999" />
<path d="M17575000 49928553
L17575000 59575000
" />
<path d="M17075000 7575000
L575000 7575000
" />
<path d="M75000 8075000
L75000 59575000
" />
<path d="M54575000.000000 75000.000001 A500001.000000 500001.000000 0.0 0 0 54075000.000001 575000.000000" />
<path d="M17575000.000001 9721447.000000 A500001.000000 500001.000000 0.0 0 0 18075000.000000 10221446.999999" />
<path d="M136075000.218462 66575000.123624 A15525770.000000 15525770.000000 0.0 0 0 138074999.219413 59575000.009143" />
<path d="M19021900.000000 7575000.000001 A500001.000000 500001.000000 0.0 0 0 18521900.000001 8075000.000000" />
<path d="M575000.000000 7575000.000001 A500001.000000 500001.000000 0.0 0 0 75000.000001 8075000.000000" />
<circle cx="135965000.000000" cy="3865000.000000" r="1112115.000000" /> 
<circle cx="37028950.000000" cy="20390300.000000" r="2100000.000000" /> 
<path d="M128075000 2075000
L128075000 8055000
" />
<path d="M35575000 7075000
L35575000 3075000
" />
<path d="M18521899.999999 49928553.000000 A503153.000000 503153.000000 0.0 0 0 18074999.949049 49428553.452870" />
<path d="M17575000 8075000
L17575000 9721447
" />
<path d="M36075000.000000 2575000.000001 A500001.000000 500001.000000 0.0 0 0 35575000.000001 3075000.000000" />
<path d="M53575000.000000 2574999.999999 A500001.000000 500001.000000 0.0 0 0 54074999.999999 2075000.000000" />
<path d="M138075000 2575000
L138074999 59575000
" />
<circle cx="61275000.000000" cy="61075000.000000" r="2100000.000000" /> 
<path d="M17575000 15501777
L17575000 20648224
" />
<path d="M17574999.999999 8075000.000000 A500001.000000 500001.000000 0.0 0 0 17075000.000000 7575000.000001" />
<path d="M74074999.999999 575000.000000 A500001.000000 500001.000000 0.0 0 0 73575000.000000 75000.000001" />
<path d="M18521899.999999 15501777.000000 A503153.000000 503153.000000 0.0 0 0 18074999.949049 15001777.452870" />
<circle cx="19024850.000000" cy="25236050.000000" r="2100000.000000" /> 
<path d="M17075000 60075000
L575000 60075000
" />
<path d="M54075000 575000
L54075000 2075000
" />
<path d="M114075000.090369 89574999.861006 A74695420.000000 74695420.000000 0.0 0 0 70074999.993520 77575000.852786" />
<path d="M54575000 75000
L73575000 75000
" />
<path d="M18075000.010940 10221447.097204 A503176.000000 503176.000000 0.0 0 0 18521899.999641 9721447.000000" />
<circle cx="135965000.000000" cy="55687885.000000" r="1112115.000000" /> 
<circle cx="106275000.000000" cy="59575000.000000" r="2100000.000000" /> 
<path d="M17075000.000000 60074999.999999 A500001.000000 500001.000000 0.0 0 0 17574999.999999 59575000.000000" />
<path d="M18075000.000000 15001777.000001 A500001.000000 500001.000000 0.0 0 0 17575000.000001 15501777.000000" />
<path d="M74075000 575000
L74075000 1575000
" />
<circle cx="134175000.000000" cy="60435000.000000" r="2000000.000000" /> 
<path d="M62166642.133766 73454417.915234 A8886181.000000 8886181.000000 0.0 0 0 70075000.009915 77575000.218741" />
<path d="M74075000.000001 1575000.000000 A500001.000000 500001.000000 0.0 0 0 74575000.000000 2074999.999999" />
<path d="M17575000.000001 37721447.000000 A500001.000000 500001.000000 0.0 0 0 18075000.000000 38221446.999999" />
<path d="M18521900 8075000
L18521900 9721447
" />
<path d="M18074999.994250 38221446.948904 A503168.000000 503168.000000 0.0 0 0 18521899.999857 37721447.000000" />
<path d="M138074999.999999 2575000.000000 A500001.000000 500001.000000 0.0 0 0 137575000.000000 2075000.000001" />
<path d="M36075000 2575000
L53575000 2575000
" />
<path d="M128075000 8055000
L119055000 8055000
" />
<path d="M18074999.994250 21148223.948904 A503168.000000 503168.000000 0.0 0 0 18521899.999857 20648224.000000" />
<circle cx="91068500.000000" cy="20390300.000000" r="2100000.000000" /> 
<path d="M18521900 37721447
L18521900 32575000
" />
<path d="M35075000.000000 7574999.999999 A500001.000000 500001.000000 0.0 0 0 35574999.999999 7075000.000000" />
<path d="M62166642.005266 73454417.996678 A28737217.000000 28737217.000000 0.0 0 0 39074999.998955 60075000.024717" />
<circle cx="37028950.000000" cy="37466600.000000" r="2100000.000000" /> 
<path d="M124075000 87575000
L136075000 66575000
" />
<path d="M18075000.000000 49428553.000001 A500001.000000 500001.000000 0.0 0 0 17575000.000001 49928553.000000" />
<path d="M75000.000001 59575000.000000 A500001.000000 500001.000000 0.0 0 0 575000.000000 60074999.999999" />
<path d="M39075000 60075000
L19021900 60075000
" />
<path d="M114074999.415744 89575000.854936 A7129658.000000 7129658.000000 0.0 0 0 124075000.397779 87575000.258634" />
<path d="M137575000 2075000
L128075000 2075000
" />
<path d="M18521900 59575000
L18521900 49928553
" />
<path d="M17575000.000001 20648224.000000 A500001.000000 500001.000000 0.0 0 0 18075000.000000 21148223.999999" />
</g>
<g style="fill:#C2C200; fill-opacity:0.0; 
stroke:#C2C200; stroke-width:120000.000000; stroke-opacity:1; 
stroke-linecap:round; stroke-linejoin:round;">
<path d="M125594200 22097900
L125594200 18186300
" />
<path d="M121631700 22097900
L121631700 18186300
" />
<path d="M127939600 9057100
L127939600 13705300
" />
<path d="M116932700 22097900
L121631700 22097900
" />
<path d="M119251600 9057100
L119251600 13705300
" />
<path d="M127939600 9057100
L119251600 9057100
" />
<path d="M121631700 18186300
L116932700 18186300
" />
<path d="M125594200 18186300
L130293200 18186300
" />
<path d="M119251600 13705300
L127939600 13705300
" />
<path d="M130293200 18186300
L130293200 22097900
" />
<path d="M116932700 18186300
L116932700 22097900
" />
<path d="M130293200 22097900
L125594200 22097900
" />
<g >
</g>
<g >
</g>
<g >
</g>
<g >
</g>
<g >
</g>
<g >
</g>
<g >
</g>
<g >
</g>
<g >
</g>
<g >
</g>
<g >
</g>
<g >
</g>
<g >
</g>
<g >
</g>
<g >
</g>
<g >
</g>
<g >
</g>
<g >
</g>
<g >
</g>
<g >
</g>
<g >
</g>
<g >
</g>
<g >
</g>
<g >
</g>
<g >
</g>
<g >
</g>
<g >
</g>
<g >
</g>
<g >
</g>
<g >
</g>
<g >
</g>
<g >
</g>
<g >
</g>
<g >
</g>
<g >
</g>
<g >
</g>
<g >
</g>
<g >
</g>
<g >
</g>
<g >
</g>
<g >
</g>
<g >
</g>
<g >
</g>
<g >
</g>
<g >
</g>
<g >
</g>
<g >
</g>
<g >
</g>
<g >
</g>
<g >
</g>
<g >
</g>
<g >
</g>
<g >
</g>
<g >
</g>
<g >
</g>
<g >
</g>
<g >
</g>
<g >
</g>
<g >
</g>
<g >
</g>
<g >
</g>
<g >
</g>
<g >
</g>
<g >
</g>
<g >
</g>
<g >
</g>
<g >
</g>
<g >
</g>
<g >
</g>
<g >
</g>
<g >
</g>
<g >
</g>
<g >
</g>
<g >
</g>
<g >
</g>
<g >
</g>
<g >
</g>
<g >
</g>
<g >
</g>
<g >
</g>
<g >
</g>
<g >
</g>
<g >
</g>
<g >
</g>
<g >
</g>
<g >
</g>
</g> 
</svg>
