<?xml version="1.0" standalone="no"?>
 <!DOCTYPE svg PUBLIC "-//W3C//DTD SVG 1.1//EN" 
 "http://www.w3.org/Graphics/SVG/1.1/DTD/svg11.dtd"> 
<svg
  xmlns:svg="http://www.w3.org/2000/svg"
  xmlns="http://www.w3.org/2000/svg"
  xmlns:xlink="http://www.w3.org/1999/xlink"
  version="1.1"
  width="15.158720cm" height="10.815320cm" viewBox="0 0 151587200 108153200">
<title>SVG Picture created as corne-chocolate-brd.svg date 2023/01/29 00:15:30 </title>
  <desc>Picture generated by PCBNEW </desc>
<g style="fill:#000000; fill-opacity:1.000000;stroke:#000000; stroke-opacity:1.000000;
stroke-linecap:round; stroke-linejoin:round;"
 transform="translate(0 0) scale(1 1)">
</g>
<g style="fill:#000000; fill-opacity:0.0; 
stroke:#000000; stroke-width:0.000000; stroke-opacity:1; 
stroke-linecap:round; stroke-linejoin:round;">
<g >
</g>
<g >
</g>
<g >
</g>
<g >
</g>
<g >
</g>
<g >
</g>
<g >
</g>
<g >
</g>
<g >
</g>
<g >
</g>
<g >
</g>
<g >
</g>
<g >
</g>
<g >
</g>
<g >
</g>
<g >
</g>
<g >
</g>
<g >
</g>
<g >
</g>
<g >
</g>
<g >
</g>
<g >
</g>
<g >
</g>
<g >
</g>
<g >
</g>
<g >
</g>
<g >
</g>
<g >
</g>
<g >
</g>
<g >
</g>
<g >
</g>
<g >
</g>
<g >
</g>
<g >
</g>
<g >
</g>
<g >
</g>
<g >
</g>
<g >
</g>
<g >
</g>
<g >
</g>
<g >
</g>
<g >
</g>
<g >
</g>
<g >
</g>
<g >
</g>
<g >
</g>
<g >
</g>
<g >
</g>
<g >
</g>
<g >
</g>
<g >
</g>
<g >
</g>
<g >
</g>
<g >
</g>
<g >
</g>
<g >
</g>
<g >
</g>
<g >
</g>
<g >
</g>
<g >
</g>
<g >
</g>
<g >
</g>
<g >
</g>
<g >
</g>
<g >
</g>
<g >
</g>
<g >
</g>
<g >
</g>
<g >
</g>
<g >
</g>
<g >
</g>
<g >
</g>
<g >
</g>
<g >
</g>
<g >
</g>
<g >
</g>
<g >
</g>
<g >
</g>
<g >
</g>
<g >
</g>
<g >
</g>
<g >
</g>
<g >
</g>
<g >
</g>
<g >
</g>
<g >
</g>
<g >
</g>
</g>
<g style="fill:#000000; fill-opacity:0.0; 
stroke:#000000; stroke-width:0.000000; stroke-opacity:1; 
stroke-linecap:round; stroke-linejoin:round;">
</g>
<g style="fill:#C2C200; fill-opacity:0.0; 
stroke:#C2C200; stroke-width:0.000000; stroke-opacity:1; 
stroke-linecap:round; stroke-linejoin:round;">
</g>
<g style="fill:#C2C200; fill-opacity:0.0; 
stroke:#C2C200; stroke-width:150000.000000; stroke-opacity:1; 
stroke-linecap:round; stroke-linejoin:round;">
<path d="M8122800 31929600
L8122800 18129600
" />
<path d="M17622800 28129600
L17622800 31329600
" />
<path d="M8122800 31929600
L21922800 31929600
" />
<path d="M12422800 31329600
L17622800 31329600
" />
<path d="M12422800 28129600
L12422800 31329600
" />
<path d="M17622800 28129600
L12422800 28129600
" />
<path d="M21922800 18129600
L21922800 31929600
" />
<path d="M21922800 18129600
L8122800 18129600
" />
<path d="M30416900 28133400
L30416900 31333400
" />
<path d="M26116900 31933400
L26116900 18133400
" />
<path d="M35616900 28133400
L35616900 31333400
" />
<path d="M35616900 28133400
L30416900 28133400
" />
<path d="M39916900 18133400
L26116900 18133400
" />
<path d="M39916900 18133400
L39916900 31933400
" />
<path d="M30416900 31333400
L35616900 31333400
" />
<path d="M26116900 31933400
L39916900 31933400
" />
<path d="M53631000 23356600
L53631000 26556600
" />
<path d="M57931000 13356600
L44131000 13356600
" />
<path d="M44131000 27156600
L44131000 13356600
" />
<path d="M44131000 27156600
L57931000 27156600
" />
<path d="M48431000 26556600
L53631000 26556600
" />
<path d="M57931000 13356600
L57931000 27156600
" />
<path d="M48431000 23356600
L48431000 26556600
" />
<path d="M53631000 23356600
L48431000 23356600
" />
<path d="M62141000 24746800
L75941000 24746800
" />
<path d="M71641000 20946800
L66441000 20946800
" />
<path d="M75941000 10946800
L62141000 10946800
" />
<path d="M66441000 20946800
L66441000 24146800
" />
<path d="M75941000 10946800
L75941000 24746800
" />
<path d="M71641000 20946800
L71641000 24146800
" />
<path d="M62141000 24746800
L62141000 10946800
" />
<path d="M66441000 24146800
L71641000 24146800
" />
<path d="M84457000 23267900
L84457000 26467900
" />
<path d="M89657000 23267900
L84457000 23267900
" />
<path d="M93957000 13267900
L80157000 13267900
" />
<path d="M84457000 26467900
L89657000 26467900
" />
<path d="M93957000 13267900
L93957000 27067900
" />
<path d="M89657000 23267900
L89657000 26467900
" />
<path d="M80157000 27067900
L93957000 27067900
" />
<path d="M80157000 27067900
L80157000 13267900
" />
<path d="M111970000 15668900
L111970000 29468900
" />
<path d="M107670000 25668900
L107670000 28868900
" />
<path d="M98170000 29468900
L111970000 29468900
" />
<path d="M102470000 28868900
L107670000 28868900
" />
<path d="M98170000 29468900
L98170000 15668900
" />
<path d="M102470000 25668900
L102470000 28868900
" />
<path d="M111970000 15668900
L98170000 15668900
" />
<path d="M107670000 25668900
L102470000 25668900
" />
<path d="M21922800 35112500
L21922800 48912500
" />
<path d="M17622800 45112500
L12422800 45112500
" />
<path d="M8122800 48912500
L21922800 48912500
" />
<path d="M17622800 45112500
L17622800 48312500
" />
<path d="M21922800 35112500
L8122800 35112500
" />
<path d="M12422800 48312500
L17622800 48312500
" />
<path d="M8122800 48912500
L8122800 35112500
" />
<path d="M12422800 45112500
L12422800 48312500
" />
<path d="M30416900 48347000
L35616900 48347000
" />
<path d="M26116900 48947000
L39916900 48947000
" />
<path d="M30416900 45147000
L30416900 48347000
" />
<path d="M26116900 48947000
L26116900 35147000
" />
<path d="M39916900 35147000
L26116900 35147000
" />
<path d="M39916900 35147000
L39916900 48947000
" />
<path d="M35616900 45147000
L35616900 48347000
" />
<path d="M35616900 45147000
L30416900 45147000
" />
<path d="M44133000 44145200
L57933000 44145200
" />
<path d="M57933000 30345200
L57933000 44145200
" />
<path d="M53633000 40345200
L53633000 43545200
" />
<path d="M44133000 44145200
L44133000 30345200
" />
<path d="M48433000 43545200
L53633000 43545200
" />
<path d="M57933000 30345200
L44133000 30345200
" />
<path d="M48433000 40345200
L48433000 43545200
" />
<path d="M53633000 40345200
L48433000 40345200
" />
<path d="M75948000 27948000
L75948000 41748000
" />
<path d="M75948000 27948000
L62148000 27948000
" />
<path d="M62148000 41748000
L62148000 27948000
" />
<path d="M66448000 41148000
L71648000 41148000
" />
<path d="M66448000 37948000
L66448000 41148000
" />
<path d="M62148000 41748000
L75948000 41748000
" />
<path d="M71648000 37948000
L71648000 41148000
" />
<path d="M71648000 37948000
L66448000 37948000
" />
<path d="M80157000 44082700
L80157000 30282700
" />
<path d="M84457000 43482700
L89657000 43482700
" />
<path d="M89657000 40282700
L89657000 43482700
" />
<path d="M93957000 30282700
L80157000 30282700
" />
<path d="M80157000 44082700
L93957000 44082700
" />
<path d="M84457000 40282700
L84457000 43482700
" />
<path d="M93957000 30282700
L93957000 44082700
" />
<path d="M89657000 40282700
L84457000 40282700
" />
<path d="M107670000 42710000
L102470000 42710000
" />
<path d="M107670000 42710000
L107670000 45910000
" />
<path d="M102470000 42710000
L102470000 45910000
" />
<path d="M98170000 46510000
L111970000 46510000
" />
<path d="M98170000 46510000
L98170000 32710000
" />
<path d="M111970000 32710000
L111970000 46510000
" />
<path d="M111970000 32710000
L98170000 32710000
" />
<path d="M102470000 45910000
L107670000 45910000
" />
<path d="M17622800 62143000
L17622800 65343000
" />
<path d="M17622800 62143000
L12422800 62143000
" />
<path d="M8122800 65943000
L8122800 52143000
" />
<path d="M8122800 65943000
L21922800 65943000
" />
<path d="M12422800 65343000
L17622800 65343000
" />
<path d="M12422800 62143000
L12422800 65343000
" />
<path d="M21922800 52143000
L21922800 65943000
" />
<path d="M21922800 52143000
L8122800 52143000
" />
<path d="M39916900 52131000
L39916900 65931000
" />
<path d="M35616900 62131000
L35616900 65331000
" />
<path d="M30416900 62131000
L30416900 65331000
" />
<path d="M30416900 65331000
L35616900 65331000
" />
<path d="M26116900 65931000
L26116900 52131000
" />
<path d="M39916900 52131000
L26116900 52131000
" />
<path d="M26116900 65931000
L39916900 65931000
" />
<path d="M35616900 62131000
L30416900 62131000
" />
<path d="M53634000 57358000
L48434000 57358000
" />
<path d="M44134000 61158000
L44134000 47358000
" />
<path d="M44134000 61158000
L57934000 61158000
" />
<path d="M57934000 47358000
L44134000 47358000
" />
<path d="M48434000 60558000
L53634000 60558000
" />
<path d="M48434000 57358000
L48434000 60558000
" />
<path d="M53634000 57358000
L53634000 60558000
" />
<path d="M57934000 47358000
L57934000 61158000
" />
<path d="M75937000 44937000
L62137000 44937000
" />
<path d="M62137000 58737000
L75937000 58737000
" />
<path d="M71637000 54937000
L71637000 58137000
" />
<path d="M75937000 44937000
L75937000 58737000
" />
<path d="M71637000 54937000
L66437000 54937000
" />
<path d="M62137000 58737000
L62137000 44937000
" />
<path d="M66437000 54937000
L66437000 58137000
" />
<path d="M66437000 58137000
L71637000 58137000
" />
<path d="M80157000 61074000
L80157000 47274000
" />
<path d="M80157000 61074000
L93957000 61074000
" />
<path d="M93957000 47274000
L80157000 47274000
" />
<path d="M84457000 57274000
L84457000 60474000
" />
<path d="M84457000 60474000
L89657000 60474000
" />
<path d="M89657000 57274000
L84457000 57274000
" />
<path d="M93957000 47274000
L93957000 61074000
" />
<path d="M89657000 57274000
L89657000 60474000
" />
<path d="M88905000 68110000
L88905000 81910000
" />
<path d="M79405000 78110000
L79405000 81310000
" />
<path d="M75105000 81910000
L88905000 81910000
" />
<path d="M79405000 81310000
L84605000 81310000
" />
<path d="M88905000 68110000
L75105000 68110000
" />
<path d="M84605000 78110000
L84605000 81310000
" />
<path d="M75105000 81910000
L75105000 68110000
" />
<path d="M84605000 78110000
L79405000 78110000
" />
<path d="M111634740 72843963
L108063037 86173740
" />
<path d="M99042033 83135403
L104064847 84481262
" />
<path d="M94733260 82602037
L108063037 86173740
" />
<path d="M104893068 81390300
L104064847 84481262
" />
<path d="M111634740 72843963
L98304963 69272260
" />
<path d="M99870254 80044441
L99042033 83135403
" />
<path d="M94733260 82602037
L98304963 69272260
" />
<path d="M104893068 81390300
L99870254 80044441
" />
<path d="M128989679 81858334
L131760960 83458334
" />
<path d="M126389679 86361666
L129160960 87961666
" />
<path d="M122479425 73134425
L134430575 80034425
" />
<path d="M127530575 91985575
L134430575 80034425
" />
<path d="M128989679 81858334
L126389679 86361666
" />
<path d="M129160960 87961666
L131760960 83458334
" />
<path d="M122479425 73134425
L115579425 85085575
" />
<path d="M127530575 91985575
L115579425 85085575
" />
<path d="M102477000 59700000
L102477000 62900000
" />
<path d="M98177000 63500000
L98177000 49700000
" />
<path d="M107677000 59700000
L107677000 62900000
" />
<path d="M111977000 49700000
L111977000 63500000
" />
<path d="M107677000 59700000
L102477000 59700000
" />
<path d="M111977000 49700000
L98177000 49700000
" />
<path d="M98177000 63500000
L111977000 63500000
" />
<path d="M102477000 62900000
L107677000 62900000
" />
</g>
<g style="fill:#C2C200; fill-opacity:0.0; 
stroke:#C2C200; stroke-width:120000.000000; stroke-opacity:1; 
stroke-linecap:round; stroke-linejoin:round;">
<path d="M142919500 71321000
L138093500 71321000
" />
<path d="M138093500 60399000
L142919500 60399000
" />
<path d="M142919500 60399000
L142919500 71321000
" />
<path d="M138093500 71321000
L138093500 60399000
" />
<path d="M124827000 29856000
L137530000 29860000
" />
<path d="M119493000 29856000
L119493000 63257000
" />
<path d="M124827000 29856000
L119493000 29856000
" />
<path d="M119493000 63257000
L137527000 63257000
" />
<path d="M137530000 29860000
L137527000 29983000
" />
<path d="M137527000 63257000
L137527000 29983000
" />
<g >
</g>
<g >
</g>
<g >
</g>
<g >
</g>
<g >
</g>
<g >
</g>
<g >
</g>
<g >
</g>
<g >
</g>
<g >
</g>
<g >
</g>
<g >
</g>
<g >
</g>
<g >
</g>
<g >
</g>
<g >
</g>
<g >
</g>
<g >
</g>
<g >
</g>
<g >
</g>
<g >
</g>
<g >
</g>
<g >
</g>
<g >
</g>
<g >
</g>
<g >
</g>
<g >
</g>
<g >
</g>
<g >
</g>
<g >
</g>
<g >
</g>
<g >
</g>
<g >
</g>
<g >
</g>
<g >
</g>
<g >
</g>
<g >
</g>
<g >
</g>
<g >
</g>
<g >
</g>
<g >
</g>
<g >
</g>
<g >
</g>
<g >
</g>
<g >
</g>
<g >
</g>
<g >
</g>
<g >
</g>
<g >
</g>
<g >
</g>
<g >
</g>
<g >
</g>
<g >
</g>
<g >
</g>
<g >
</g>
<g >
</g>
<g >
</g>
<g >
</g>
<g >
</g>
<g >
</g>
<g >
</g>
<g >
</g>
<g >
</g>
<g >
</g>
<g >
</g>
<g >
</g>
<g >
</g>
<g >
</g>
<g >
</g>
<g >
</g>
<g >
</g>
<g >
</g>
<g >
</g>
<g >
</g>
<g >
</g>
<g >
</g>
<g >
</g>
<g >
</g>
<g >
</g>
<g >
</g>
<g >
</g>
<g >
</g>
<g >
</g>
<g >
</g>
<g >
</g>
<g >
</g>
<g >
</g>
</g>
<g style="fill:#000000; fill-opacity:0.0; 
stroke:#000000; stroke-width:120000.000000; stroke-opacity:1; 
stroke-linecap:round; stroke-linejoin:round;">
</g>
<g style="fill:#C2C200; fill-opacity:0.0; 
stroke:#C2C200; stroke-width:120000.000000; stroke-opacity:1; 
stroke-linecap:round; stroke-linejoin:round;">
</g>
<g style="fill:#C2C200; fill-opacity:0.0; 
stroke:#C2C200; stroke-width:150000.000000; stroke-opacity:1; 
stroke-linecap:round; stroke-linejoin:round;">
<path d="M142570000 10360000
L79570000 10360000
" />
<path d="M23516900 28933224
L23516900 23786777
" />
<path d="M40070000 15860000
L24016900 15860000
" />
<path d="M23070000.000000 40360000.000001 A500001.000000 500001.000000 0.0 0 0 22570000.000001 40860000.000000" />
<path d="M22570000 40860000
L22570000 46006447
" />
<path d="M23516900.000000 40860000.000000 A503155.000000 503155.000000 0.0 0 0 23070000.036553 40359999.675113" />
<circle cx="24019850.000000" cy="50527750.000000" r="2800000.000000" /> 
<path d="M23516900.000001 67860000.000000 A500001.000000 500001.000000 0.0 0 0 24016900.000000 68359999.999999" />
<path d="M22570000 58213553
L22570000 67860000
" />
<path d="M22070000 15860000
L5570000 15860000
" />
<path d="M5070000 16360000
L5070000 67860000
" />
<path d="M59570000.000000 8360000.000001 A500001.000000 500001.000000 0.0 0 0 59070000.000001 8860000.000000" />
<path d="M22570000.000001 18006447.000000 A500001.000000 500001.000000 0.0 0 0 23070000.000000 18506446.999999" />
<path d="M141070000.218462 74860000.123624 A15525770.000000 15525770.000000 0.0 0 0 143069999.219413 67860000.009143" />
<path d="M24016900.000000 15860000.000001 A500001.000000 500001.000000 0.0 0 0 23516900.000001 16360000.000000" />
<path d="M5570000.000000 15860000.000001 A500001.000000 500001.000000 0.0 0 0 5070000.000001 16360000.000000" />
<circle cx="42023950.000000" cy="28675300.000000" r="2800000.000000" /> 
<path d="M40570000 15360000
L40570000 11360000
" />
<path d="M23516900.000000 58213553.000000 A503155.000000 503155.000000 0.0 0 0 23070000.036553 57713552.675113" />
<path d="M22570000 16360000
L22570000 18006447
" />
<path d="M41070000.000000 10860000.000001 A500001.000000 500001.000000 0.0 0 0 40570000.000001 11360000.000000" />
<path d="M58570000.000000 10859999.999999 A500001.000000 500001.000000 0.0 0 0 59069999.999999 10360000.000000" />
<path d="M143070000 10860000
L143069999 67860000
" />
<circle cx="66270000.000000" cy="69360000.000000" r="2800000.000000" /> 
<path d="M22570000 23786777
L22570000 28933224
" />
<path d="M22569999.999999 16360000.000000 A500001.000000 500001.000000 0.0 0 0 22070000.000000 15860000.000001" />
<path d="M79069999.999999 8860000.000000 A500001.000000 500001.000000 0.0 0 0 78570000.000000 8360000.000001" />
<path d="M23516900.000000 23786777.000000 A503155.000000 503155.000000 0.0 0 0 23070000.036553 23286776.675113" />
<circle cx="24019850.000000" cy="33521050.000000" r="2800000.000000" /> 
<path d="M22070000 68360000
L5570000 68360000
" />
<path d="M59070000 8860000
L59070000 10360000
" />
<path d="M119070000.090369 97859999.861006 A74695420.000000 74695420.000000 0.0 0 0 75069999.993520 85860000.852786" />
<path d="M59570000 8360000
L78570000 8360000
" />
<path d="M23070000.022746 18506447.202109 A503175.000000 503175.000000 0.0 0 0 23516899.999678 18006447.000000" />
<circle cx="111270000.000000" cy="67860000.000000" r="2800000.000000" /> 
<path d="M22070000.000000 68359999.999999 A500001.000000 500001.000000 0.0 0 0 22569999.999999 67860000.000000" />
<path d="M23070000.000000 23286777.000001 A500001.000000 500001.000000 0.0 0 0 22570000.000001 23786777.000000" />
<path d="M79070000 8860000
L79070000 9860000
" />
<path d="M67161642.133766 81739417.915234 A8886181.000000 8886181.000000 0.0 0 0 75070000.009915 85860000.218741" />
<path d="M79070000.000001 9860000.000000 A500001.000000 500001.000000 0.0 0 0 79570000.000000 10359999.999999" />
<path d="M22570000.000001 46006447.000000 A500001.000000 500001.000000 0.0 0 0 23070000.000000 46506446.999999" />
<path d="M23516900 16360000
L23516900 18006447
" />
<path d="M23070000.006054 46506447.053797 A503167.000000 503167.000000 0.0 0 0 23516899.999880 46006447.000000" />
<path d="M143069999.999999 10860000.000000 A500001.000000 500001.000000 0.0 0 0 142570000.000000 10360000.000001" />
<path d="M41070000 10860000
L58570000 10860000
" />
<path d="M23070000.081770 29433224.726609 A503170.000000 503170.000000 0.0 0 0 23516899.999832 28933224.000000" />
<circle cx="96063500.000000" cy="28675300.000000" r="2800000.000000" /> 
<path d="M23516900 46006447
L23516900 40860000
" />
<path d="M40070000.000000 15859999.999999 A500001.000000 500001.000000 0.0 0 0 40569999.999999 15360000.000000" />
<path d="M67161642.005266 81739417.996678 A28737217.000000 28737217.000000 0.0 0 0 44069999.998955 68360000.024717" />
<circle cx="42023950.000000" cy="45751600.000000" r="2800000.000000" /> 
<path d="M129070000 95860000
L141070000 74860000
" />
<path d="M23070000.000000 57713553.000001 A500001.000000 500001.000000 0.0 0 0 22570000.000001 58213553.000000" />
<path d="M5070000.000001 67860000.000000 A500001.000000 500001.000000 0.0 0 0 5570000.000000 68359999.999999" />
<path d="M44070000 68360000
L24016900 68360000
" />
<path d="M119069999.415744 97860000.854936 A7129658.000000 7129658.000000 0.0 0 0 129070000.397779 95860000.258634" />
<path d="M23516900 67860000
L23516900 58213553
" />
<path d="M22570000.000001 28933224.000000 A500001.000000 500001.000000 0.0 0 0 23070000.000000 29433223.999999" />
</g>
<g style="fill:#C2C200; fill-opacity:0.0; 
stroke:#C2C200; stroke-width:120000.000000; stroke-opacity:1; 
stroke-linecap:round; stroke-linejoin:round;">
<path d="M122070700 23989200
L125982300 23989200
" />
<path d="M135086100 28366600
L135111500 28366600
" />
<path d="M136025900 17392600
L142121900 17392600
" />
<path d="M142121900 26536600
L136025900 26536600
" />
<path d="M122070700 20026700
L125982300 20026700
" />
<path d="M135111500 15614600
L135111500 17595800
" />
<path d="M136025900 26536600
L136025900 17392600
" />
<path d="M135111500 26385400
L130463300 26385400
" />
<path d="M130463300 15614600
L135086100 15614600
" />
<path d="M122070700 15327700
L122070700 20026700
" />
<path d="M135111500 17595800
L130463300 17595800
" />
<path d="M130463300 26385400
L130463300 28366600
" />
<path d="M135111500 28366600
L135111500 26385400
" />
<path d="M135086100 15614600
L135111500 15614600
" />
<path d="M125982300 20026700
L125982300 15327700
" />
<path d="M130463300 28366600
L135086100 28366600
" />
<path d="M125982300 23989200
L125982300 28688200
" />
<path d="M130463300 17595800
L130463300 15614600
" />
<path d="M142121900 17392600
L142121900 26536600
" />
<path d="M125982300 28688200
L122070700 28688200
" />
<path d="M125982300 15327700
L122070700 15327700
" />
<path d="M122070700 28688200
L122070700 23989200
" />
<g >
</g>
<g >
</g>
<g >
</g>
<g >
</g>
<g >
</g>
<g >
</g>
<g >
</g>
<g >
</g>
<g >
</g>
<g >
</g>
<g >
</g>
<g >
</g>
<g >
</g>
<g >
</g>
<g >
</g>
<g >
</g>
<g >
</g>
<g >
</g>
<g >
</g>
<g >
</g>
<g >
</g>
<g >
</g>
<g >
</g>
<g >
</g>
<g >
</g>
<g >
</g>
<g >
</g>
<g >
</g>
<g >
</g>
<g >
</g>
<g >
</g>
<g >
</g>
<g >
</g>
<g >
</g>
<g >
</g>
<g >
</g>
<g >
</g>
<g >
</g>
<g >
</g>
<g >
</g>
<g >
</g>
<g >
</g>
<g >
</g>
<g >
</g>
<g >
</g>
<g >
</g>
<g >
</g>
<g >
</g>
<g >
</g>
<g >
</g>
<g >
</g>
<g >
</g>
<g >
</g>
<g >
</g>
<g >
</g>
<g >
</g>
<g >
</g>
<g >
</g>
<g >
</g>
<g >
</g>
<g >
</g>
<g >
</g>
<g >
</g>
<g >
</g>
<g >
</g>
<g >
</g>
<g >
</g>
<g >
</g>
<g >
</g>
<g >
</g>
<g >
</g>
<g >
</g>
<g >
</g>
<g >
</g>
<g >
</g>
<g >
</g>
<g >
</g>
<g >
</g>
<g >
</g>
<g >
</g>
<g >
</g>
<g >
</g>
<g >
</g>
<g >
</g>
<g >
</g>
<g >
</g>
<g >
</g>
</g> 
</svg>
