<svg width="540.737px" height="342.967px">
<path d="M98.7095 89.0963 C98.7095 71.7105, 98.7095 54.3247, 98.7095 36.9388 " stroke="black" stroke-width="1" fill="none" />

<path d="M150.867 36.9388 C133.481 36.9388, 116.095 36.9388, 98.7095 36.9388 " stroke="black" stroke-width="1" fill="none" />

<path d="M150.867 36.9388 C150.867 54.3247, 150.867 71.7105, 150.867 89.0963 " stroke="black" stroke-width="1" fill="none" />

<path d="M98.7095 89.0963 C116.095 89.0963, 133.481 89.0963, 150.867 89.0963 " stroke="black" stroke-width="1" fill="none" />

<path d="M218.952 18.8848 C201.566 18.8848, 184.18 18.8848, 166.794 18.8848 " stroke="black" stroke-width="1" fill="none" />

<path d="M166.794 71.0423 C166.794 53.6564, 166.794 36.2706, 166.794 18.8848 " stroke="black" stroke-width="1" fill="none" />

<path d="M166.794 71.0423 C184.18 71.0423, 201.566 71.0423, 218.952 71.0423 " stroke="black" stroke-width="1" fill="none" />

<path d="M218.952 18.8848 C218.952 36.2706, 218.952 53.6564, 218.952 71.0423 " stroke="black" stroke-width="1" fill="none" />

<path d="M234.864 61.9344 C252.249 61.9344, 269.635 61.9344, 287.021 61.9344 " stroke="black" stroke-width="1" fill="none" />

<path d="M287.021 9.77688 C269.635 9.77688, 252.249 9.77688, 234.864 9.77688 " stroke="black" stroke-width="1" fill="none" />

<path d="M287.021 9.77688 C287.021 27.1627, 287.021 44.5485, 287.021 61.9344 " stroke="black" stroke-width="1" fill="none" />

<path d="M234.864 61.9344 C234.864 44.5485, 234.864 27.1627, 234.864 9.77688 " stroke="black" stroke-width="1" fill="none" />

<path d="M355.113 18.5495 C337.727 18.5495, 320.341 18.5495, 302.956 18.5495 " stroke="black" stroke-width="1" fill="none" />

<path d="M355.113 18.5495 C355.113 35.9354, 355.113 53.3212, 355.113 70.707 " stroke="black" stroke-width="1" fill="none" />

<path d="M302.956 70.707 C320.341 70.707, 337.727 70.707, 355.113 70.707 " stroke="black" stroke-width="1" fill="none" />

<path d="M302.956 70.707 C302.956 53.3212, 302.956 35.9354, 302.956 18.5495 " stroke="black" stroke-width="1" fill="none" />

<path d="M423.194 27.6242 C423.194 45.01, 423.194 62.3958, 423.194 79.7817 " stroke="black" stroke-width="1" fill="none" />

<path d="M371.036 79.7817 C388.422 79.7817, 405.808 79.7817, 423.194 79.7817 " stroke="black" stroke-width="1" fill="none" />

<path d="M371.036 79.7817 C371.036 62.3958, 371.036 45.01, 371.036 27.6242 " stroke="black" stroke-width="1" fill="none" />

<path d="M423.194 27.6242 C405.808 27.6242, 388.422 27.6242, 371.036 27.6242 " stroke="black" stroke-width="1" fill="none" />

<path d="M98.7095 153.4 C116.095 153.4, 133.481 153.4, 150.867 153.4 " stroke="black" stroke-width="1" fill="none" />

<path d="M98.7095 153.4 C98.7095 136.014, 98.7095 118.628, 98.7095 101.242 " stroke="black" stroke-width="1" fill="none" />

<path d="M150.867 101.242 C133.481 101.242, 116.095 101.242, 98.7095 101.242 " stroke="black" stroke-width="1" fill="none" />

<path d="M150.867 101.242 C150.867 118.628, 150.867 136.014, 150.867 153.4 " stroke="black" stroke-width="1" fill="none" />

<path d="M166.802 135.251 C184.188 135.251, 201.574 135.251, 218.959 135.251 " stroke="black" stroke-width="1" fill="none" />

<path d="M218.959 83.0937 C218.959 100.479, 218.959 117.865, 218.959 135.251 " stroke="black" stroke-width="1" fill="none" />

<path d="M166.802 135.251 C166.802 117.865, 166.802 100.479, 166.802 83.0937 " stroke="black" stroke-width="1" fill="none" />

<path d="M218.959 83.0937 C201.574 83.0937, 184.188 83.0937, 166.802 83.0937 " stroke="black" stroke-width="1" fill="none" />

<path d="M287.048 74.0334 C287.048 91.4192, 287.048 108.805, 287.048 126.191 " stroke="black" stroke-width="1" fill="none" />

<path d="M287.048 74.0334 C269.662 74.0334, 252.276 74.0334, 234.89 74.0334 " stroke="black" stroke-width="1" fill="none" />

<path d="M234.89 126.191 C234.89 108.805, 234.89 91.4192, 234.89 74.0334 " stroke="black" stroke-width="1" fill="none" />

<path d="M234.89 126.191 C252.276 126.191, 269.662 126.191, 287.048 126.191 " stroke="black" stroke-width="1" fill="none" />

<path d="M302.956 135.015 C302.956 117.629, 302.956 100.243, 302.956 82.8574 " stroke="black" stroke-width="1" fill="none" />

<path d="M355.113 82.8574 C337.727 82.8574, 320.341 82.8574, 302.956 82.8574 " stroke="black" stroke-width="1" fill="none" />

<path d="M302.956 135.015 C320.341 135.015, 337.727 135.015, 355.113 135.015 " stroke="black" stroke-width="1" fill="none" />

<path d="M355.113 82.8574 C355.113 100.243, 355.113 117.629, 355.113 135.015 " stroke="black" stroke-width="1" fill="none" />

<path d="M371.036 144.189 C388.422 144.189, 405.808 144.189, 423.194 144.189 " stroke="black" stroke-width="1" fill="none" />

<path d="M371.036 144.189 C371.036 126.803, 371.036 109.417, 371.036 92.0315 " stroke="black" stroke-width="1" fill="none" />

<path d="M423.194 92.0315 C423.194 109.417, 423.194 126.803, 423.194 144.189 " stroke="black" stroke-width="1" fill="none" />

<path d="M423.194 92.0315 C405.808 92.0315, 388.422 92.0315, 371.036 92.0315 " stroke="black" stroke-width="1" fill="none" />

<path d="M150.867 165.434 C150.867 182.82, 150.867 200.205, 150.867 217.591 " stroke="black" stroke-width="1" fill="none" />

<path d="M98.7095 217.591 C98.7095 200.205, 98.7095 182.82, 98.7095 165.434 " stroke="black" stroke-width="1" fill="none" />

<path d="M150.867 165.434 C133.481 165.434, 116.095 165.434, 98.7095 165.434 " stroke="black" stroke-width="1" fill="none" />

<path d="M98.7095 217.591 C116.095 217.591, 133.481 217.591, 150.867 217.591 " stroke="black" stroke-width="1" fill="none" />

<path d="M166.806 199.552 C166.806 182.166, 166.806 164.78, 166.806 147.394 " stroke="black" stroke-width="1" fill="none" />

<path d="M166.806 199.552 C184.192 199.552, 201.577 199.552, 218.963 199.552 " stroke="black" stroke-width="1" fill="none" />

<path d="M218.963 147.394 C201.577 147.394, 184.192 147.394, 166.806 147.394 " stroke="black" stroke-width="1" fill="none" />

<path d="M218.963 147.394 C218.963 164.78, 218.963 182.166, 218.963 199.552 " stroke="black" stroke-width="1" fill="none" />

<path d="M287.006 138.244 C269.62 138.244, 252.234 138.244, 234.849 138.244 " stroke="black" stroke-width="1" fill="none" />

<path d="M234.849 190.401 C252.234 190.401, 269.62 190.401, 287.006 190.401 " stroke="black" stroke-width="1" fill="none" />

<path d="M287.006 138.244 C287.006 155.63, 287.006 173.015, 287.006 190.401 " stroke="black" stroke-width="1" fill="none" />

<path d="M234.849 190.401 C234.849 173.015, 234.849 155.63, 234.849 138.244 " stroke="black" stroke-width="1" fill="none" />

<path d="M302.956 199.234 C302.956 181.848, 302.956 164.462, 302.956 147.077 " stroke="black" stroke-width="1" fill="none" />

<path d="M302.956 199.234 C320.341 199.234, 337.727 199.234, 355.113 199.234 " stroke="black" stroke-width="1" fill="none" />

<path d="M355.113 147.077 C337.727 147.077, 320.341 147.077, 302.956 147.077 " stroke="black" stroke-width="1" fill="none" />

<path d="M355.113 147.077 C355.113 164.462, 355.113 181.848, 355.113 199.234 " stroke="black" stroke-width="1" fill="none" />

<path d="M336.019 225.827 C336.019 243.213, 336.019 260.598, 336.019 277.984 " stroke="black" stroke-width="1" fill="none" />

<path d="M283.861 277.984 C301.247 277.984, 318.633 277.984, 336.019 277.984 " stroke="black" stroke-width="1" fill="none" />

<path d="M336.019 225.827 C318.633 225.827, 301.247 225.827, 283.861 225.827 " stroke="black" stroke-width="1" fill="none" />

<path d="M283.861 277.984 C283.861 260.598, 283.861 243.213, 283.861 225.827 " stroke="black" stroke-width="1" fill="none" />

<path d="M421.927 243.719 C417.427 260.512, 412.927 277.306, 408.427 294.099 " stroke="black" stroke-width="1" fill="none" />

<path d="M358.047 280.6 C374.84 285.1, 391.634 289.599, 408.427 294.099 " stroke="black" stroke-width="1" fill="none" />

<path d="M421.927 243.719 C405.133 239.219, 388.34 234.719, 371.546 230.22 " stroke="black" stroke-width="1" fill="none" />

<path d="M358.047 280.6 C362.547 263.806, 367.047 247.013, 371.546 230.22 " stroke="black" stroke-width="1" fill="none" />

<path d="M462.914 244.817 C477.971 253.51, 493.027 262.203, 508.084 270.895 " stroke="black" stroke-width="1" fill="none" />

<path d="M482.005 316.065 C490.698 301.009, 499.391 285.952, 508.084 270.895 " stroke="black" stroke-width="1" fill="none" />

<path d="M462.914 244.817 C454.221 259.873, 445.529 274.93, 436.836 289.986 " stroke="black" stroke-width="1" fill="none" />

<path d="M482.005 316.065 C466.949 307.372, 451.892 298.679, 436.836 289.986 " stroke="black" stroke-width="1" fill="none" />

<path d="M371.063 208.403 C371.063 191.017, 371.063 173.631, 371.063 156.246 " stroke="black" stroke-width="1" fill="none" />

<path d="M423.22 156.246 C423.22 173.631, 423.22 191.017, 423.22 208.403 " stroke="black" stroke-width="1" fill="none" />

<path d="M423.22 156.246 C405.834 156.246, 388.449 156.246, 371.063 156.246 " stroke="black" stroke-width="1" fill="none" />

<path d="M371.063 208.403 C388.449 208.403, 405.834 208.403, 423.22 208.403 " stroke="black" stroke-width="1" fill="none" />

<path d="M521.928 196.683 C528.008 196.683, 534.088 196.683, 540.168 196.683 " stroke="black" stroke-width="1" fill="none" />

<path d="M521.928 237.963 C521.928 224.203, 521.928 210.443, 521.928 196.683 " stroke="black" stroke-width="1" fill="none" />

<path d="M471.787 81.2447 C487.791 81.2498, 503.795 81.2548, 519.798 81.2598 " stroke="black" stroke-width="1" fill="none" />

<path d="M451.627 81.2447 C451.627 123.325, 451.627 165.405, 451.627 207.485 " stroke="black" stroke-width="1" fill="none" />

<path d="M471.787 81.2447 C465.067 81.2447, 458.347 81.2447, 451.627 81.2447 " stroke="black" stroke-width="1" fill="none" />

<path d="M451.627 207.485 C474.347 207.485, 497.067 207.485, 519.787 207.485 " stroke="black" stroke-width="1" fill="none" />

<path d="M519.798 81.2598 C519.795 81.4148, 519.791 81.5698, 519.787 81.7247 " stroke="black" stroke-width="1" fill="none" />

<path d="M519.787 207.485 C519.787 165.565, 519.787 123.645, 519.787 81.7247 " stroke="black" stroke-width="1" fill="none" />

<path d="M538.847 7.55906 C459.477 7.55906, 380.107 7.55906, 300.737 7.55906 " stroke="black" stroke-width="1" fill="none" />

<path d="M151.446 28.3465 C131.221 28.3465, 110.997 28.3465, 90.7725 28.3465 " stroke="black" stroke-width="1" fill="none" />

<path d="M88.8828 224.882 C88.8828 225.926, 89.7288 226.772, 90.7725 226.772 " stroke="black" stroke-width="1" fill="none" />

<path d="M225.146 0 C224.103 3.60444e-06, 223.257 0.846077, 223.257 1.88976 " stroke="black" stroke-width="1" fill="none" />

<path d="M533.178 251.339 C537.759 243.243, 540.35 234.175, 540.737 224.882 " stroke="black" stroke-width="1" fill="none" />

<path d="M90.7725 28.3465 C89.7288 28.3465, 88.8828 29.1925, 88.8828 30.2362 " stroke="black" stroke-width="1" fill="none" />

<path d="M153.335 26.4567 C153.335 21.4173, 153.335 16.378, 153.335 11.3386 " stroke="black" stroke-width="1" fill="none" />

<path d="M155.225 9.44882 C154.182 9.44882, 153.335 10.2949, 153.335 11.3386 " stroke="black" stroke-width="1" fill="none" />

<path d="M221.367 9.44882 C222.411 9.44882, 223.257 8.60274, 223.257 7.55906 " stroke="black" stroke-width="1" fill="none" />

<path d="M540.737 9.44882 C540.737 81.2598, 540.737 153.071, 540.737 224.882 " stroke="black" stroke-width="1" fill="none" />

<path d="M298.847 1.88976 C298.847 0.846084, 298.001 3.60444e-06, 296.957 0 " stroke="black" stroke-width="1" fill="none" />

<path d="M223.257 1.88976 C223.257 3.77953, 223.257 5.66929, 223.257 7.55906 " stroke="black" stroke-width="1" fill="none" />

<path d="M450.028 338.268 C400.679 306.183, 342.535 290.325, 283.729 292.913 " stroke="black" stroke-width="1" fill="none" />

<path d="M225.146 0 C249.083 0, 273.02 0, 296.957 0 " stroke="black" stroke-width="1" fill="none" />

<path d="M298.847 1.88976 C298.847 3.14961, 298.847 4.40945, 298.847 5.66929 " stroke="black" stroke-width="1" fill="none" />

<path d="M253.839 277.34 C260.288 287.516, 271.694 293.459, 283.729 292.913 " stroke="black" stroke-width="1" fill="none" />

<path d="M298.847 5.66929 C298.847 6.71297, 299.693 7.55905, 300.737 7.55906 " stroke="black" stroke-width="1" fill="none" />

<path d="M88.8828 30.2362 C88.8828 32.3105, 88.8828 34.3848, 88.8828 36.459 " stroke="black" stroke-width="1" fill="none" />

<path d="M540.737 9.44882 C540.737 8.40514, 539.891 7.55906, 538.847 7.55906 " stroke="black" stroke-width="1" fill="none" />

<path d="M155.225 9.44882 C177.272 9.44882, 199.32 9.44882, 221.367 9.44882 " stroke="black" stroke-width="1" fill="none" />

<path d="M151.446 28.3465 C152.489 28.3465, 153.335 27.5004, 153.335 26.4567 " stroke="black" stroke-width="1" fill="none" />

<path d="M253.839 277.34 C234.813 247.178, 202.193 228.278, 166.564 226.772 " stroke="black" stroke-width="1" fill="none" />

<path d="M487.824 330.709 C502.942 304.252, 518.06 277.795, 533.178 251.339 " stroke="black" stroke-width="1" fill="none" />

<path d="M166.564 226.772 C141.3 226.772, 116.036 226.772, 90.7725 226.772 " stroke="black" stroke-width="1" fill="none" />

<path d="M450.028 338.268 C456.017 342.361, 463.404 343.866, 470.517 342.443 C477.63 341.021, 483.869 336.79, 487.824 330.709 " stroke="black" stroke-width="1" fill="none" />

<path d="M88.8828 224.882 C88.8828 212.729, 88.8828 48.612, 88.8828 36.459 " stroke="black" stroke-width="1" fill="none" />

<path d="M537.154 34.139 C537.154 45.659, 537.154 57.179, 537.154 68.699 " stroke="black" stroke-width="1" fill="none" />

<path d="M358.004 82.3872 L357.441 81.8241 L357.026 81.3214 L356.61 80.7016 L356.247 80.0364 L355.997 79.4468 L355.756 78.6757 L355.589 77.8669 L355.529 77.2471 L355.529 76.3551 L355.589 75.7126 L355.756 74.8924 L355.99 74.1403 L356.247 73.5318 L356.61 72.8666 L357.026 72.2468 L357.441 71.7441 L358.004 71.1809 L358.556 70.7274 L359.142 70.3268 L359.728 70.0017 L360.514 69.6691 L361.175 69.4688 L361.939 69.3101 L362.665 69.2383 L363.481 69.2383 L364.207 69.3101 L364.97 69.4688 L365.631 69.6691 L366.418 70.0017 L367.003 70.3268 L367.589 70.7274 L368.141 71.1809 L368.704 71.7441 L369.12 72.2468 L369.536 72.8666 L369.899 73.5318 L370.156 74.1403 L370.39 74.8924 L370.556 75.7126 L370.617 76.3551 L370.617 77.2471 L370.556 77.8669 L370.39 78.6757 L370.148 79.4468 L369.899 80.0364 L369.536 80.7016 L369.12 81.3214 L368.704 81.8241 L368.141 82.3872 L367.589 82.8408 L367.003 83.2414 L366.418 83.5664 L365.628 83.9028 L364.97 84.0994 L364.207 84.2581 L363.451 84.3337 L362.695 84.3337 L361.939 84.2581 L361.175 84.0994 L360.518 83.9028 L359.728 83.5664 L359.142 83.2414 L358.556 82.8408 L358.004 82.3872 Z " stroke="black" stroke-width="1" fill="none" />

<path d="M153.203 81.8279 L152.784 81.3214 L152.364 80.6978 L152.16 80.3501 L151.846 79.6886 L151.612 79.0461 L151.423 78.3167 L151.317 77.6326 L151.279 77.1639 L151.279 76.4042 L151.317 75.9469 L151.423 75.2515 L151.612 74.522 L151.846 73.8795 L152.16 73.2181 L152.364 72.8704 L152.784 72.2468 L152.984 71.9897 L153.199 71.7441 L153.789 71.1545 L154.035 70.939 L154.292 70.7387 L154.915 70.3192 L155.263 70.1151 L155.486 70.0017 L156.272 69.6691 L156.567 69.5671 L157.296 69.3781 L157.992 69.2723 L158.419 69.2383 L159.239 69.2383 L159.666 69.2723 L160.362 69.3781 L161.091 69.5671 L161.386 69.6691 L162.172 70.0017 L162.395 70.1151 L162.743 70.3192 L163.366 70.7387 L163.623 70.939 L163.869 71.1545 L164.459 71.7441 L164.674 71.9897 L164.874 72.2468 L165.294 72.8704 L165.498 73.2181 L165.619 73.46 L165.955 74.2537 L166.046 74.522 L166.235 75.2515 L166.341 75.9469 L166.375 76.374 L166.375 77.1942 L166.341 77.6326 L166.235 78.3167 L166.046 79.0461 L165.948 79.3371 L165.611 80.1271 L165.498 80.3501 L165.294 80.6978 L164.874 81.3214 L164.674 81.5784 L164.455 81.8279 L163.869 82.4137 L163.623 82.6291 L163.366 82.8294 L162.743 83.249 L162.395 83.4531 L162.172 83.5664 L161.382 83.9028 L161.091 84.0011 L160.362 84.1901 L159.666 84.2959 L159.209 84.3337 L158.449 84.3337 L157.693 84.2581 L156.983 84.1145 L156.276 83.9028 L155.486 83.5664 L154.915 83.249 L154.292 82.8294 L153.789 82.4137 L153.203 81.8279 Z " stroke="black" stroke-width="1" fill="none" />

<path d="M153.487 146.669 L153.245 146.416 L152.791 145.872 L152.338 145.199 L152.013 144.594 L151.729 143.937 L151.525 143.279 L151.347 142.417 L151.279 141.703 L151.279 140.947 L151.366 140.131 L151.419 139.813 L151.514 139.428 L151.612 139.061 L151.74 138.691 L152.035 138.007 L152.372 137.394 L152.772 136.809 L153.226 136.257 L153.789 135.694 L154.292 135.278 L154.911 134.862 L155.577 134.499 L156.166 134.25 L156.937 134.008 L157.757 133.842 L158.419 133.777 L159.239 133.777 L159.9 133.842 L160.721 134.008 L161.492 134.25 L162.081 134.499 L162.746 134.862 L163.366 135.278 L163.869 135.694 L164.432 136.257 L164.886 136.809 L165.286 137.394 L165.619 137.999 L165.955 138.793 L166.144 139.428 L166.239 139.813 L166.292 140.131 L166.375 140.917 L166.375 141.733 L166.311 142.417 L166.133 143.279 L165.951 143.869 L165.623 144.64 L165.32 145.199 L164.867 145.872 L164.413 146.416 L163.918 146.911 L163.355 147.38 L162.796 147.758 L162.081 148.151 L161.492 148.4 L160.721 148.642 L159.969 148.797 L159.205 148.873 L158.453 148.873 L157.689 148.797 L156.937 148.642 L156.166 148.4 L155.902 148.298 L155.248 147.981 L154.662 147.633 L154.303 147.38 L153.74 146.911 L153.487 146.669 Z " stroke="black" stroke-width="1" fill="none" />

<path d="M414.943 229.951 L414.489 229.4 L414.089 228.814 L413.764 228.228 L413.427 227.438 L413.212 226.72 L413.087 226.115 L413 225.291 L413 224.475 L413.065 223.791 L413.238 222.952 L413.424 222.339 L413.752 221.568 L414.055 221.009 L414.508 220.336 L414.962 219.792 L415.457 219.297 L416.02 218.828 L416.58 218.45 L417.294 218.057 L417.883 217.808 L418.654 217.566 L419.407 217.411 L420.17 217.335 L420.922 217.335 L421.686 217.411 L422.438 217.566 L423.209 217.808 L423.798 218.057 L424.127 218.227 L424.724 218.583 L425.072 218.828 L425.635 219.297 L425.889 219.539 L426.391 220.091 L426.584 220.336 L427.037 221.009 L427.181 221.255 L427.34 221.568 L427.669 222.339 L427.767 222.63 L427.956 223.383 L428.058 224.048 L428.092 224.475 L428.092 225.291 L428.066 225.658 L427.952 226.417 L427.763 227.147 L427.665 227.438 L427.329 228.228 L427.215 228.451 L426.837 229.071 L426.603 229.4 L426.149 229.951 L425.586 230.514 L425.34 230.73 L425.083 230.93 L424.464 231.346 L423.798 231.709 L423.209 231.958 L422.438 232.2 L421.618 232.366 L420.956 232.431 L420.136 232.431 L419.475 232.366 L418.654 232.2 L417.883 231.958 L417.294 231.709 L416.629 231.346 L416.009 230.93 L415.506 230.514 L414.943 229.951 Z " stroke="black" stroke-width="1" fill="none" />

<path d="M245.393 236.15 L244.842 235.598 L244.46 235.141 L243.98 234.426 L243.685 233.897 L243.349 233.107 L243.133 232.389 L243.009 231.784 L242.922 230.96 L242.922 230.144 L242.986 229.46 L243.16 228.621 L243.345 228.009 L243.674 227.238 L243.961 226.701 L244.449 225.979 L244.838 225.51 L245.359 224.985 L245.934 224.505 L246.588 224.067 L247.215 223.726 L247.82 223.473 L248.519 223.246 L249.328 223.08 L250.091 223.005 L250.843 223.005 L251.607 223.08 L252.416 223.246 L252.688 223.326 L253.41 223.587 L253.72 223.726 L254.358 224.074 L255.005 224.509 L255.557 224.966 L255.81 225.208 L256.312 225.76 L256.505 226.005 L256.959 226.678 L257.261 227.238 L257.59 228.009 L257.775 228.621 L257.949 229.46 L258.013 230.144 L258.013 230.96 L257.926 231.784 L257.802 232.389 L257.586 233.107 L257.25 233.897 L256.925 234.483 L256.524 235.069 L256.071 235.621 L255.507 236.184 L255.005 236.6 L254.385 237.015 L253.72 237.378 L253.13 237.628 L252.359 237.869 L251.539 238.036 L250.877 238.1 L250.057 238.1 L249.396 238.036 L248.576 237.869 L247.805 237.628 L247.215 237.378 L246.523 237 L245.972 236.63 L245.393 236.15 Z " stroke="black" stroke-width="1" fill="none" />

</svg>
