<svg width="521.858px" height="342.967px">
<path d="M419.565 12.3591 C451.061 12.3591, 482.557 12.3591, 514.054 12.3591 " stroke="black" stroke-width="1" fill="none" />

<path d="M514.054 12.3591 C514.054 77.8709, 514.054 143.383, 514.054 208.895 " stroke="black" stroke-width="1" fill="none" />

<path d="M514.054 208.895 C482.557 208.895, 451.061 208.895, 419.565 208.895 " stroke="black" stroke-width="1" fill="none" />

<path d="M419.565 208.895 C419.565 143.383, 419.565 77.8709, 419.565 12.3591 " stroke="black" stroke-width="1" fill="none" />

<path d="M444.505 102.009 C459.623 102.009, 474.741 102.009, 489.859 102.009 " stroke="black" stroke-width="1" fill="none" />

<path d="M489.859 102.009 C489.859 135.395, 489.859 168.781, 489.859 202.167 " stroke="black" stroke-width="1" fill="none" />

<path d="M489.859 202.167 C474.741 202.167, 459.623 202.167, 444.505 202.167 " stroke="black" stroke-width="1" fill="none" />

<path d="M444.505 202.167 C444.505 168.781, 444.505 135.395, 444.505 102.009 " stroke="black" stroke-width="1" fill="none" />

<path d="M433.435 87.1321 C433.435 60.7321, 433.435 34.3321, 433.435 7.9321 " stroke="black" stroke-width="1" fill="none" />

<path d="M500.145 87.1321 C500.145 60.7321, 500.145 34.3321, 500.145 7.9321 " stroke="black" stroke-width="1" fill="none" />

<path d="M433.435 7.9321 C455.672 7.9321, 477.908 7.9321, 500.145 7.9321 " stroke="black" stroke-width="1" fill="none" />

<path d="M433.435 87.1321 C455.672 87.1321, 477.908 87.1321, 500.145 87.1321 " stroke="black" stroke-width="1" fill="none" />

<path d="M79.8308 89.0963 C79.8308 71.7105, 79.8308 54.3247, 79.8308 36.9388 " stroke="black" stroke-width="1" fill="none" />

<path d="M131.988 36.9388 C114.602 36.9388, 97.2166 36.9388, 79.8308 36.9388 " stroke="black" stroke-width="1" fill="none" />

<path d="M131.988 36.9388 C131.988 54.3247, 131.988 71.7105, 131.988 89.0963 " stroke="black" stroke-width="1" fill="none" />

<path d="M79.8308 89.0963 C97.2166 89.0963, 114.602 89.0963, 131.988 89.0963 " stroke="black" stroke-width="1" fill="none" />

<path d="M200.073 18.8848 C182.687 18.8848, 165.301 18.8848, 147.916 18.8848 " stroke="black" stroke-width="1" fill="none" />

<path d="M147.916 71.0423 C147.916 53.6564, 147.916 36.2706, 147.916 18.8848 " stroke="black" stroke-width="1" fill="none" />

<path d="M147.916 71.0423 C165.301 71.0423, 182.687 71.0423, 200.073 71.0423 " stroke="black" stroke-width="1" fill="none" />

<path d="M200.073 18.8848 C200.073 36.2706, 200.073 53.6564, 200.073 71.0423 " stroke="black" stroke-width="1" fill="none" />

<path d="M215.985 61.9344 C233.371 61.9344, 250.757 61.9344, 268.142 61.9344 " stroke="black" stroke-width="1" fill="none" />

<path d="M268.142 9.77688 C250.757 9.77688, 233.371 9.77688, 215.985 9.77688 " stroke="black" stroke-width="1" fill="none" />

<path d="M268.142 9.77688 C268.142 27.1627, 268.142 44.5485, 268.142 61.9344 " stroke="black" stroke-width="1" fill="none" />

<path d="M215.985 61.9344 C215.985 44.5485, 215.985 27.1627, 215.985 9.77688 " stroke="black" stroke-width="1" fill="none" />

<path d="M336.234 18.5495 C318.849 18.5495, 301.463 18.5495, 284.077 18.5495 " stroke="black" stroke-width="1" fill="none" />

<path d="M336.234 18.5495 C336.234 35.9354, 336.234 53.3212, 336.234 70.707 " stroke="black" stroke-width="1" fill="none" />

<path d="M284.077 70.707 C284.077 53.3212, 284.077 35.9354, 284.077 18.5495 " stroke="black" stroke-width="1" fill="none" />

<path d="M404.315 27.6242 C404.315 45.01, 404.315 62.3959, 404.315 79.7817 " stroke="black" stroke-width="1" fill="none" />

<path d="M352.157 79.7817 C369.543 79.7817, 386.929 79.7817, 404.315 79.7817 " stroke="black" stroke-width="1" fill="none" />

<path d="M352.157 79.7817 C352.157 62.3959, 352.157 45.01, 352.157 27.6242 " stroke="black" stroke-width="1" fill="none" />

<path d="M404.315 27.6242 C386.929 27.6242, 369.543 27.6242, 352.157 27.6242 " stroke="black" stroke-width="1" fill="none" />

<path d="M79.8308 153.4 C97.2166 153.4, 114.602 153.4, 131.988 153.4 " stroke="black" stroke-width="1" fill="none" />

<path d="M79.8308 153.4 C79.8308 136.014, 79.8308 118.628, 79.8308 101.242 " stroke="black" stroke-width="1" fill="none" />

<path d="M131.988 101.242 C114.602 101.242, 97.2166 101.242, 79.8308 101.242 " stroke="black" stroke-width="1" fill="none" />

<path d="M131.988 101.242 C131.988 118.628, 131.988 136.014, 131.988 153.4 " stroke="black" stroke-width="1" fill="none" />

<path d="M147.923 135.251 C165.309 135.251, 182.695 135.251, 200.081 135.251 " stroke="black" stroke-width="1" fill="none" />

<path d="M200.081 83.0937 C200.081 100.48, 200.081 117.865, 200.081 135.251 " stroke="black" stroke-width="1" fill="none" />

<path d="M147.923 135.251 C147.923 117.865, 147.923 100.48, 147.923 83.0937 " stroke="black" stroke-width="1" fill="none" />

<path d="M200.081 83.0937 C182.695 83.0937, 165.309 83.0937, 147.923 83.0937 " stroke="black" stroke-width="1" fill="none" />

<path d="M268.169 74.0334 C268.169 91.4192, 268.169 108.805, 268.169 126.191 " stroke="black" stroke-width="1" fill="none" />

<path d="M268.169 74.0334 C250.783 74.0334, 233.397 74.0334, 216.011 74.0334 " stroke="black" stroke-width="1" fill="none" />

<path d="M216.011 126.191 C216.011 108.805, 216.011 91.4192, 216.011 74.0334 " stroke="black" stroke-width="1" fill="none" />

<path d="M216.011 126.191 C233.397 126.191, 250.783 126.191, 268.169 126.191 " stroke="black" stroke-width="1" fill="none" />

<path d="M284.077 135.015 C284.077 117.629, 284.077 100.243, 284.077 82.8575 " stroke="black" stroke-width="1" fill="none" />

<path d="M336.234 82.8575 C318.849 82.8575, 301.463 82.8575, 284.077 82.8575 " stroke="black" stroke-width="1" fill="none" />

<path d="M284.077 135.015 C301.463 135.015, 318.849 135.015, 336.234 135.015 " stroke="black" stroke-width="1" fill="none" />

<path d="M336.234 82.8575 C336.234 100.243, 336.234 117.629, 336.234 135.015 " stroke="black" stroke-width="1" fill="none" />

<path d="M352.157 144.189 C369.543 144.189, 386.929 144.189, 404.315 144.189 " stroke="black" stroke-width="1" fill="none" />

<path d="M352.157 144.189 C352.157 126.803, 352.157 109.417, 352.157 92.0315 " stroke="black" stroke-width="1" fill="none" />

<path d="M404.315 92.0315 C404.315 109.417, 404.315 126.803, 404.315 144.189 " stroke="black" stroke-width="1" fill="none" />

<path d="M404.315 92.0315 C386.929 92.0315, 369.543 92.0315, 352.157 92.0315 " stroke="black" stroke-width="1" fill="none" />

<path d="M131.988 165.434 C131.988 182.82, 131.988 200.205, 131.988 217.591 " stroke="black" stroke-width="1" fill="none" />

<path d="M79.8308 217.591 C79.8308 200.205, 79.8308 182.82, 79.8308 165.434 " stroke="black" stroke-width="1" fill="none" />

<path d="M131.988 165.434 C114.602 165.434, 97.2166 165.434, 79.8308 165.434 " stroke="black" stroke-width="1" fill="none" />

<path d="M79.8308 217.591 C97.2166 217.591, 114.602 217.591, 131.988 217.591 " stroke="black" stroke-width="1" fill="none" />

<path d="M147.927 199.552 C147.927 182.166, 147.927 164.78, 147.927 147.394 " stroke="black" stroke-width="1" fill="none" />

<path d="M147.927 199.552 C165.313 199.552, 182.699 199.552, 200.084 199.552 " stroke="black" stroke-width="1" fill="none" />

<path d="M200.084 147.394 C182.699 147.394, 165.313 147.394, 147.927 147.394 " stroke="black" stroke-width="1" fill="none" />

<path d="M200.084 147.394 C200.084 164.78, 200.084 182.166, 200.084 199.552 " stroke="black" stroke-width="1" fill="none" />

<path d="M268.127 138.244 C250.741 138.244, 233.356 138.244, 215.97 138.244 " stroke="black" stroke-width="1" fill="none" />

<path d="M215.97 190.401 C233.356 190.401, 250.741 190.401, 268.127 190.401 " stroke="black" stroke-width="1" fill="none" />

<path d="M268.127 138.244 C268.127 155.63, 268.127 173.015, 268.127 190.401 " stroke="black" stroke-width="1" fill="none" />

<path d="M215.97 190.401 C215.97 173.015, 215.97 155.63, 215.97 138.244 " stroke="black" stroke-width="1" fill="none" />

<path d="M284.077 199.234 C284.077 181.848, 284.077 164.462, 284.077 147.077 " stroke="black" stroke-width="1" fill="none" />

<path d="M284.077 199.234 C301.463 199.234, 318.849 199.234, 336.234 199.234 " stroke="black" stroke-width="1" fill="none" />

<path d="M336.234 147.077 C318.849 147.077, 301.463 147.077, 284.077 147.077 " stroke="black" stroke-width="1" fill="none" />

<path d="M336.234 147.077 C336.234 164.462, 336.234 181.848, 336.234 199.234 " stroke="black" stroke-width="1" fill="none" />

<path d="M317.14 225.827 C317.14 243.213, 317.14 260.598, 317.14 277.984 " stroke="black" stroke-width="1" fill="none" />

<path d="M264.983 277.984 C282.369 277.984, 299.754 277.984, 317.14 277.984 " stroke="black" stroke-width="1" fill="none" />

<path d="M317.14 225.827 C299.754 225.827, 282.369 225.827, 264.983 225.827 " stroke="black" stroke-width="1" fill="none" />

<path d="M264.983 277.984 C264.983 260.598, 264.983 243.213, 264.983 225.827 " stroke="black" stroke-width="1" fill="none" />

<path d="M403.048 243.719 C398.548 260.512, 394.048 277.306, 389.548 294.099 " stroke="black" stroke-width="1" fill="none" />

<path d="M339.168 280.6 C355.962 285.1, 372.755 289.599, 389.548 294.099 " stroke="black" stroke-width="1" fill="none" />

<path d="M403.048 243.719 C386.254 239.219, 369.461 234.719, 352.668 230.22 " stroke="black" stroke-width="1" fill="none" />

<path d="M339.168 280.6 C343.668 263.806, 348.168 247.013, 352.668 230.22 " stroke="black" stroke-width="1" fill="none" />

<path d="M444.036 244.817 C459.092 253.51, 474.149 262.203, 489.205 270.896 " stroke="black" stroke-width="1" fill="none" />

<path d="M444.036 244.817 C435.343 259.873, 426.65 274.93, 417.957 289.986 " stroke="black" stroke-width="1" fill="none" />

<path d="M404.341 156.246 C404.341 173.632, 404.341 191.017, 404.341 208.403 " stroke="black" stroke-width="1" fill="none" />

<path d="M404.341 156.246 C386.956 156.246, 369.57 156.246, 352.184 156.246 " stroke="black" stroke-width="1" fill="none" />

<path d="M520.722 176.961 C514.642 176.961, 508.563 176.961, 502.483 176.961 " stroke="black" stroke-width="1" fill="none" />

<path d="M502.483 135.681 C508.563 135.681, 514.642 135.681, 520.722 135.681 " stroke="black" stroke-width="1" fill="none" />

<path d="M520.722 135.681 C520.722 149.441, 520.722 163.201, 520.722 176.961 " stroke="black" stroke-width="1" fill="none" />

<path d="M502.483 176.961 C502.483 163.201, 502.483 149.441, 502.483 135.681 " stroke="black" stroke-width="1" fill="none" />

<path d="M449.972 30.1606 C449.972 22.6646, 449.972 15.1685, 449.972 7.67244 " stroke="black" stroke-width="1" fill="none" />

<path d="M449.972 7.67244 C393.934 7.63465, 337.896 7.59685, 281.858 7.55906 " stroke="black" stroke-width="1" fill="none" />

<path d="M132.567 28.3465 C112.343 28.3465, 92.1182 28.3465, 71.8938 28.3465 " stroke="black" stroke-width="1" fill="none" />

<path d="M206.268 0 C205.224 2.0275e-06, 204.378 0.846077, 204.378 1.88976 " stroke="black" stroke-width="1" fill="none" />

<path d="M514.299 251.339 C518.88 243.243, 521.471 234.175, 521.858 224.882 " stroke="black" stroke-width="1" fill="none" />

<path d="M484.063 7.55906 C484.063 15.0929, 484.063 22.6268, 484.063 30.1606 " stroke="black" stroke-width="1" fill="none" />

<path d="M134.457 26.4567 C134.457 21.4173, 134.457 16.378, 134.457 11.3386 " stroke="black" stroke-width="1" fill="none" />

<path d="M136.346 9.44882 C135.303 9.44882, 134.457 10.2949, 134.457 11.3386 " stroke="black" stroke-width="1" fill="none" />

<path d="M202.488 9.44882 C203.532 9.44882, 204.378 8.60274, 204.378 7.55906 " stroke="black" stroke-width="1" fill="none" />

<path d="M521.858 9.44882 C521.858 81.2599, 521.858 153.071, 521.858 224.882 " stroke="black" stroke-width="1" fill="none" />

<path d="M239.528 230.551 C239.528 234.935, 235.974 238.488, 231.591 238.488 C227.207 238.488, 223.654 234.935, 223.654 230.551 C223.654 226.168, 227.207 222.614, 231.591 222.614 C235.974 222.614, 239.528 226.168, 239.528 230.551 C239.528 230.551, 239.528 230.551, 239.528 230.551 Z " stroke="black" stroke-width="1" fill="none" />

<path d="M279.968 1.88976 C279.968 0.846081, 279.122 4.05499e-06, 278.079 0 " stroke="black" stroke-width="1" fill="none" />

<path d="M204.378 1.88976 C204.378 3.77953, 204.378 5.66929, 204.378 7.55906 " stroke="black" stroke-width="1" fill="none" />

<path d="M431.15 338.268 C381.8 306.183, 323.656 290.325, 264.85 292.913 " stroke="black" stroke-width="1" fill="none" />

<path d="M206.268 0 C230.205 0, 254.142 0, 278.079 0 " stroke="black" stroke-width="1" fill="none" />

<path d="M409.606 224.882 C409.606 229.265, 406.053 232.819, 401.669 232.819 C397.286 232.819, 393.732 229.265, 393.732 224.882 C393.732 220.498, 397.286 216.945, 401.669 216.945 C406.053 216.945, 409.606 220.498, 409.606 224.882 C409.606 224.882, 409.606 224.882, 409.606 224.882 Z " stroke="black" stroke-width="1" fill="none" />

<path d="M279.968 1.88976 C279.968 3.14961, 279.968 4.40945, 279.968 5.66929 " stroke="black" stroke-width="1" fill="none" />

<path d="M514.677 228.132 C514.677 232.307, 511.293 235.691, 507.118 235.691 C502.943 235.691, 499.559 232.307, 499.559 228.132 C499.559 223.958, 502.943 220.573, 507.118 220.573 C511.293 220.573, 514.677 223.958, 514.677 228.132 C514.677 228.132, 514.677 228.132, 514.677 228.132 Z " stroke="black" stroke-width="1" fill="none" />

<path d="M234.961 277.34 C241.409 287.516, 252.815 293.459, 264.85 292.913 " stroke="black" stroke-width="1" fill="none" />

<path d="M279.968 5.66929 C279.968 6.71298, 280.815 7.55905, 281.858 7.55906 " stroke="black" stroke-width="1" fill="none" />

<path d="M521.858 9.44882 C521.858 8.40516, 521.012 7.55909, 519.968 7.55906 " stroke="black" stroke-width="1" fill="none" />

<path d="M136.346 9.44882 C158.394 9.44882, 180.441 9.44882, 202.488 9.44882 " stroke="black" stroke-width="1" fill="none" />

<path d="M484.063 30.1606 C472.699 30.1606, 461.335 30.1606, 449.972 30.1606 " stroke="black" stroke-width="1" fill="none" />

<path d="M352.133 76.7822 C352.133 81.1657, 348.579 84.7193, 344.196 84.7193 C339.812 84.7193, 336.259 81.1657, 336.259 76.7822 C336.259 72.3988, 339.812 68.8452, 344.196 68.8452 C348.579 68.8452, 352.133 72.3988, 352.133 76.7822 C352.133 76.7822, 352.133 76.7822, 352.133 76.7822 Z " stroke="black" stroke-width="1" fill="none" />

<path d="M132.567 28.3465 C133.611 28.3465, 134.457 27.5004, 134.457 26.4567 " stroke="black" stroke-width="1" fill="none" />

<path d="M234.961 277.34 C215.934 247.178, 183.314 228.278, 147.685 226.772 " stroke="black" stroke-width="1" fill="none" />

<path d="M468.945 330.709 C484.063 304.252, 499.181 277.795, 514.299 251.339 " stroke="black" stroke-width="1" fill="none" />

<path d="M147.685 226.772 C122.421 226.772, 97.1575 226.772, 71.8938 226.772 " stroke="black" stroke-width="1" fill="none" />

<path d="M431.15 338.268 C437.139 342.361, 444.525 343.866, 451.638 342.443 C458.751 341.021, 464.991 336.79, 468.945 330.709 " stroke="black" stroke-width="1" fill="none" />

<path d="M519.969 7.55906 C508 7.55906, 496.032 7.55906, 484.063 7.55906 " stroke="black" stroke-width="1" fill="none" />

<path d="M284.077 70.707 C301.463 70.707, 318.849 70.707, 336.234 70.707 " stroke="black" stroke-width="1" fill="none" />

<path d="M463.127 316.065 C448.07 307.372, 433.013 298.679, 417.957 289.986 " stroke="black" stroke-width="1" fill="none" />

<path d="M463.127 316.065 C471.82 301.009, 480.512 285.952, 489.205 270.896 " stroke="black" stroke-width="1" fill="none" />

<path d="M352.184 208.403 C369.57 208.403, 386.956 208.403, 404.341 208.403 " stroke="black" stroke-width="1" fill="none" />

<path d="M352.184 208.403 C352.184 191.017, 352.184 173.632, 352.184 156.246 " stroke="black" stroke-width="1" fill="none" />

<path d="M70.004 224.882 C70.004 212.729, 70.004 48.612, 70.004 36.459 " stroke="black" stroke-width="1" fill="none" />

<path d="M70.004 224.882 C70.004 225.926, 70.8501 226.772, 71.8938 226.772 " stroke="black" stroke-width="1" fill="none" />

<path d="M70.004 30.2362 C70.004 32.3105, 70.004 34.3848, 70.004 36.459 " stroke="black" stroke-width="1" fill="none" />

<path d="M71.8938 28.3465 C70.8501 28.3465, 70.004 29.1925, 70.004 30.2362 " stroke="black" stroke-width="1" fill="none" />

<path d="M147.889 141.323 C147.889 145.706, 144.335 149.26, 139.952 149.26 C135.568 149.26, 132.015 145.706, 132.015 141.323 C132.015 136.939, 135.568 133.386, 139.952 133.386 C144.335 133.386, 147.889 136.939, 147.889 141.323 C147.889 141.323, 147.889 141.323, 147.889 141.323 Z " stroke="black" stroke-width="1" fill="none" />

<path d="M147.889 76.7822 C147.889 81.1657, 144.335 84.7193, 139.952 84.7193 C135.568 84.7193, 132.015 81.1657, 132.015 76.7822 C132.015 72.3988, 135.568 68.8452, 139.952 68.8452 C144.335 68.8452, 147.889 72.3988, 147.889 76.7822 C147.889 76.7822, 147.889 76.7822, 147.889 76.7822 Z " stroke="black" stroke-width="1" fill="none" />

</svg>
